<?xml version="1.0" encoding="UTF-8" standalone="no"?>
<!DOCTYPE svg PUBLIC "-//W3C//DTD SVG 1.1//EN" "http://www.w3.org/Graphics/SVG/1.1/DTD/svg11.dtd">
<svg xmlns="http://www.w3.org/2000/svg" version="1.1" viewBox="0.00 0.00 375.00 374.00">
<g stroke-width="2.00" fill="none" stroke-linecap="butt">
<path stroke="#da8f93" vector-effect="non-scaling-stroke" d="
  M 254.47 142.39
  L 260.86 149.28
  Q 261.23 149.68 261.23 150.23
  L 261.23 160.33
  A 0.51 0.51 0.0 0 1 260.72 160.84
  L 252.18 160.84"
/>
<path stroke="#808080" vector-effect="non-scaling-stroke" d="
  M 252.18 160.84
  L 228.39 160.87
  A 0.55 0.54 6.7 0 0 227.86 161.28
  Q 222.09 184.51 202.17 197.61"
/>
<path stroke="#da8f93" vector-effect="non-scaling-stroke" d="
  M 202.17 197.61
  Q 198.55 199.65 193.51 201.97
  Q 188.02 204.48 184.50 205.55"
/>
<path stroke="#808080" vector-effect="non-scaling-stroke" d="
  M 184.50 205.55
  Q 178.73 207.39 174.03 208.66
  Q 155.59 213.64 138.26 215.25
  A 2.66 2.63 19.5 0 0 136.64 216.01
  L 119.56 233.09
  A 0.32 0.32 0.0 0 0 119.79 233.63
  Q 127.84 233.50 134.75 233.67
  Q 137.29 233.74 138.14 232.89
  Q 144.26 226.81 150.34 220.67
  A 3.62 3.60 -67.6 0 1 152.87 219.61
  L 171.20 219.40"
/>
<path stroke="#da8f93" vector-effect="non-scaling-stroke" d="
  M 171.20 219.40
  Q 172.93 220.63 171.67 222.59
  Q 171.41 223.00 171.63 223.43
  Q 172.49 225.05 171.57 226.72"
/>
<path stroke="#808080" vector-effect="non-scaling-stroke" d="
  M 171.57 226.72
  L 154.90 226.74
  A 1.33 1.30 -67.4 0 0 153.96 227.14
  L 141.18 239.91
  A 3.34 3.31 22.3 0 1 138.83 240.88
  L 111.27 240.89
  Q 107.39 240.89 107.35 245.21
  Q 107.34 245.55 107.48 246.26
  Q 108.13 249.47 111.41 249.46
  Q 168.46 249.40 178.50 249.59
  Q 180.57 249.63 181.90 248.67
  Q 182.85 247.98 185.05 245.80
  Q 209.14 221.89 233.33 198.14
  A 0.47 0.47 0.0 0 1 234.00 198.15
  L 261.80 226.75"
/>
<path stroke="#da8f93" vector-effect="non-scaling-stroke" d="
  M 261.80 226.75
  L 268.25 233.16"
/>
<path stroke="#808080" vector-effect="non-scaling-stroke" d="
  M 268.25 233.16
  L 268.91 234.08
  Q 269.30 234.61 269.28 235.26
  L 268.66 254.76
  Q 268.64 255.28 268.95 254.86
  C 274.33 247.50 276.36 238.63 276.74 229.33
  Q 276.83 227.30 277.75 229.35
  L 280.98 236.53
  Q 281.43 237.53 281.86 236.32
  Q 284.45 229.11 284.45 220.74
  Q 284.45 212.12 282.19 204.12
  Q 280.01 196.44 279.69 195.03
  Q 279.06 192.26 279.89 190.67
  C 282.81 185.09 288.96 181.57 294.94 180.39
  C 301.48 179.11 309.52 179.59 315.66 179.40
  A 2.97 2.97 0.0 0 0 318.01 178.11
  L 325.17 167.71
  Q 325.41 167.37 325.41 166.94
  L 325.41 156.41
  A 0.79 0.79 0.0 0 0 324.83 155.65
  Q 303.74 149.57 290.36 145.67
  C 289.62 145.46 288.37 144.92 287.81 144.19
  Q 286.19 142.04 285.06 140.69
  A 5.15 5.11 77.7 0 0 282.55 139.06
  L 268.63 135.09
  Q 267.00 134.63 268.61 134.08
  Q 280.01 130.22 293.52 125.52
  C 304.27 121.78 311.93 115.54 313.39 103.39
  Q 313.73 100.51 313.53 93.58
  Q 313.42 89.69 309.53 89.55
  Q 309.34 89.54 309.28 89.54
  Q 305.35 89.44 305.27 93.37
  Q 305.18 98.02 304.81 101.28
  Q 303.72 110.89 294.92 114.10
  Q 293.92 114.47 294.55 113.62
  C 295.57 112.24 297.96 109.44 298.94 107.33
  Q 301.12 102.62 301.22 97.02
  Q 301.36 88.72 301.09 81.95
  Q 300.93 78.17 297.02 77.83
  Q 296.89 77.82 296.86 77.82
  Q 292.97 77.72 292.82 81.54
  Q 292.68 85.00 292.44 96.08
  Q 292.33 101.09 289.60 105.28
  C 286.14 110.57 278.45 113.79 271.90 115.72
  Q 269.99 116.28 271.37 114.85
  Q 277.15 108.82 277.90 101.54
  Q 278.60 94.84 278.07 84.43
  A 4.10 3.55 84.7 0 0 273.97 80.50
  Q 273.91 80.51 273.81 80.51
  Q 269.85 80.41 269.73 84.28
  Q 269.60 88.60 269.63 93.77
  C 269.67 100.51 268.10 106.25 263.10 110.04
  Q 251.62 118.74 237.52 115.36
  Q 234.25 114.58 227.61 112.55
  A 0.32 0.31 38.1 0 1 227.54 111.98
  Q 239.93 104.47 240.70 89.75
  Q 240.93 85.31 240.66 68.90
  Q 240.59 64.78 236.45 64.57
  Q 236.43 64.56 236.20 64.56
  Q 232.14 64.54 232.07 68.59
  Q 231.99 73.88 232.05 82.17
  Q 232.12 91.33 230.39 95.26
  C 225.82 105.64 212.86 108.61 203.46 103.06
  Q 191.46 95.96 191.18 81.52
  Q 191.07 75.89 191.03 33.28
  A 4.47 4.46 2.1 0 0 186.90 28.84
  Q 186.76 28.83 186.73 28.83
  Q 182.50 28.60 182.49 32.80
  L 182.40 69.08
  A 0.47 0.46 -89.4 0 1 181.94 69.54
  L 162.20 69.54
  A 1.44 1.41 71.7 0 1 161.05 68.95
  Q 157.35 63.84 157.12 57.25
  Q 157.07 55.97 156.94 33.80
  Q 156.91 29.75 152.75 29.51
  L 152.58 29.50
  Q 148.38 29.50 148.33 33.59
  Q 148.20 43.72 148.25 57.03
  Q 148.28 65.37 152.85 72.77
  C 160.68 85.47 169.35 96.39 181.17 103.64
  C 191.59 110.04 202.57 114.71 214.77 118.43
  Q 215.96 118.80 229.79 123.19
  Q 239.17 126.17 246.05 133.19
  Q 251.41 138.66 254.47 142.39"
/>
<path stroke="#5b1013" vector-effect="non-scaling-stroke" d="
  M 268.25 233.16
  Q 268.55 232.97 268.74 232.76
  Q 268.92 232.56 268.92 232.19
  Q 268.94 221.77 268.79 210.70
  A 3.22 3.18 22.9 0 0 267.90 208.54
  L 241.51 181.17
  A 2.10 2.07 23.3 0 1 240.92 179.72
  L 240.92 168.52
  Q 240.92 168.11 240.51 168.11
  L 234.52 168.11
  Q 234.08 168.11 234.07 168.55
  Q 234.01 172.41 234.02 181.25
  C 234.03 183.48 235.40 184.97 236.80 186.45
  Q 249.04 199.32 261.42 211.81
  A 1.71 1.67 -67.6 0 1 261.91 213.03
  L 261.80 226.75"
/>
<path stroke="#5b1013" vector-effect="non-scaling-stroke" d="
  M 171.57 226.72
  L 171.49 233.28
  Q 171.49 233.79 170.97 233.79
  L 161.02 233.79
  Q 159.48 233.79 158.39 234.88
  L 153.14 240.13
  Q 152.26 241.01 153.50 241.01
  L 178.25 241.01
  A 0.38 0.37 90.0 0 0 178.62 240.63
  L 178.62 221.77
  A 2.32 2.29 -22.5 0 1 179.31 220.13
  L 202.17 197.61"
/>
<path stroke="#5b1013" vector-effect="non-scaling-stroke" d="
  M 252.18 160.84
  L 252.27 173.13
  Q 252.28 173.76 252.73 174.21
  L 260.95 182.43
  A 0.83 0.83 0.0 0 0 262.13 182.43
  C 265.61 178.89 268.66 176.40 273.48 174.68
  Q 281.40 171.85 290.00 171.84
  Q 315.65 171.79 316.40 171.78
  A 2.32 2.06 -20.5 0 0 318.29 168.22
  L 312.06 161.90
  Q 311.64 161.47 312.13 161.13
  L 314.39 159.54
  Q 315.25 158.94 314.25 158.65
  L 286.26 150.68
  A 4.73 4.70 76.4 0 1 284.09 149.35
  Q 281.01 146.04 278.49 143.51
  Q 277.26 142.28 275.50 142.24
  Q 265.20 142.03 254.47 142.39"
/>
<path stroke="#5b1013" vector-effect="non-scaling-stroke" d="
  M 171.20 219.40
  L 184.50 205.55"
/>
<path stroke="#808080" vector-effect="non-scaling-stroke" d="
  M 198.08 76.91
  C 200.35 74.77 202.94 71.82 205.28 69.27
  Q 206.38 68.06 206.41 66.01
  Q 206.54 57.03 206.33 46.74
  A 4.35 4.14 89.5 0 0 202.21 42.48
  Q 202.01 42.48 201.94 42.48
  Q 197.76 42.43 197.76 46.61
  L 197.76 76.77
  A 0.19 0.19 0.0 0 0 198.08 76.91"
/>
<path stroke="#808080" vector-effect="non-scaling-stroke" d="
  M 135.96 76.81
  L 113.76 76.81
  Q 109.45 76.81 109.10 81.12
  Q 109.08 81.42 109.08 81.46
  Q 109.17 85.87 113.50 85.88
  L 154.41 85.95
  A 0.29 0.28 71.6 0 0 154.63 85.49
  C 148.38 76.98 141.87 69.68 133.48 60.64
  A 4.07 4.06 -66.5 0 1 132.39 57.87
  L 132.39 46.44
  Q 132.39 45.77 131.91 46.24
  L 124.28 53.87
  Q 123.76 54.40 123.76 55.29
  L 123.76 61.82
  A 2.52 2.49 -67.0 0 0 124.44 63.54
  L 136.27 76.07
  Q 136.97 76.81 135.96 76.81"
/>
<path stroke="#808080" vector-effect="non-scaling-stroke" d="
  M 208.58 126.28
  Q 208.20 126.26 208.04 126.41
  A 0.84 0.70 -28.9 0 0 207.77 127.11
  Q 209.27 136.34 215.23 143.81
  Q 222.62 153.07 234.35 153.42
  Q 241.42 153.63 253.85 153.51
  A 0.42 0.42 0.0 0 0 254.15 152.80
  Q 246.46 144.63 240.53 137.97
  Q 235.31 132.11 228.53 129.79
  Q 220.03 126.88 208.58 126.28"
/>
<path stroke="#da8f93" vector-effect="non-scaling-stroke" d="
  M 129.46 160.86
  A 0.35 0.35 0.0 0 1 129.11 160.54
  L 128.91 158.24
  A 0.35 0.35 0.0 0 1 129.26 157.86
  L 134.63 157.86
  A 0.35 0.35 0.0 0 0 134.96 157.61
  L 136.97 150.55
  A 0.35 0.35 0.0 0 0 136.60 150.10
  L 122.54 151.30
  A 0.35 0.35 0.0 0 0 122.23 151.55
  L 120.62 157.26
  A 0.35 0.35 0.0 0 0 120.86 157.70
  L 121.94 158.01
  A 0.35 0.35 0.0 0 1 122.19 158.34
  L 122.19 175.93
  A 0.35 0.35 0.0 0 0 122.54 176.28
  L 134.32 176.28
  A 0.35 0.35 0.0 0 0 134.65 176.03
  L 136.39 169.91
  A 0.35 0.35 0.0 0 0 136.06 169.46
  L 129.37 169.46
  A 0.35 0.35 0.0 0 1 129.02 169.11
  L 129.02 166.81
  A 0.35 0.35 0.0 0 1 129.37 166.46
  L 134.67 166.46
  A 0.35 0.35 0.0 0 0 135.00 166.21
  L 136.39 161.31
  A 0.35 0.35 0.0 0 0 136.06 160.86
  L 129.46 160.86"
/>
<path stroke="#808080" vector-effect="non-scaling-stroke" d="
  M 199.32 156.44
  A 0.41 0.41 0.0 0 0 199.71 156.14
  L 201.21 150.87
  A 0.41 0.41 0.0 0 0 200.82 150.35
  L 195.44 150.35
  A 0.41 0.41 0.0 0 0 195.05 150.65
  L 193.55 155.92
  A 0.41 0.41 0.0 0 0 193.94 156.44
  L 199.32 156.44"
/>
<path stroke="#da8f93" vector-effect="non-scaling-stroke" d="
  M 112.78 172.37
  Q 112.89 174.22 112.74 175.19
  Q 112.56 176.32 113.70 176.32
  L 117.80 176.32
  Q 118.76 176.32 119.02 175.39
  L 120.25 171.08
  Q 120.42 170.50 119.84 170.35
  Q 119.48 170.25 119.20 170.00
  Q 118.92 169.75 118.92 168.95
  Q 118.95 158.40 118.93 151.05
  Q 118.93 150.45 118.33 150.45
  L 113.40 150.45
  Q 112.90 150.45 112.77 150.93
  L 111.35 155.90
  Q 111.19 156.46 111.76 156.56
  Q 112.92 156.76 112.93 157.71
  Q 112.93 158.25 112.40 158.14
  Q 104.50 156.48 103.22 164.49
  C 102.33 170.06 103.88 176.61 110.92 176.24
  Q 111.43 176.21 111.56 175.73
  L 112.53 172.35
  Q 112.73 171.64 112.78 172.37"
/>
<path stroke="#da8f93" vector-effect="non-scaling-stroke" d="
  M 139.22 163.28
  Q 139.22 174.77 139.28 175.72
  Q 139.32 176.31 139.90 176.31
  L 144.88 176.31
  Q 145.24 176.31 145.34 175.96
  L 146.75 171.00
  Q 146.93 170.40 146.32 170.22
  L 145.87 170.09
  Q 145.45 169.98 145.45 169.54
  Q 145.43 166.52 145.43 163.50
  Q 145.44 152.00 145.38 151.05
  Q 145.33 150.47 144.75 150.47
  L 139.77 150.47
  Q 139.41 150.47 139.31 150.82
  L 137.90 155.78
  Q 137.72 156.38 138.33 156.56
  L 138.78 156.69
  Q 139.20 156.80 139.20 157.24
  Q 139.22 160.26 139.22 163.28"
/>
<path stroke="#da8f93" vector-effect="non-scaling-stroke" d="
  M 154.73 163.22
  L 154.73 150.97
  Q 154.73 150.45 154.21 150.45
  L 149.04 150.45
  Q 148.70 150.45 148.61 150.78
  L 147.15 155.89
  A 0.58 0.57 16.8 0 0 147.53 156.59
  Q 147.79 156.68 148.06 156.61
  Q 148.55 156.49 148.55 157.00
  L 148.55 176.04
  Q 148.55 176.28 148.78 176.28
  L 154.45 176.28
  Q 154.72 176.28 154.72 176.01
  L 154.72 170.66
  Q 154.72 168.77 155.32 170.56
  L 157.12 176.00
  A 0.42 0.41 79.9 0 0 157.51 176.28
  L 163.79 176.28
  A 0.25 0.25 0.0 0 0 164.02 175.94
  L 160.15 166.68
  Q 159.97 166.24 160.15 165.79
  L 163.31 158.06
  Q 163.39 157.86 163.18 157.86
  L 157.25 157.86
  A 0.22 0.20 -76.3 0 0 157.06 157.99
  L 154.91 163.25
  Q 154.73 163.71 154.73 163.22"
/>
<path stroke="#da8f93" vector-effect="non-scaling-stroke" d="
  M 74.61 169.60
  Q 75.48 172.75 76.57 176.11
  A 0.24 0.24 0.0 0 0 76.80 176.28
  L 84.13 176.28
  A 0.11 0.11 0.0 0 0 84.23 176.12
  L 81.08 168.58
  Q 80.90 168.13 81.29 167.84
  C 82.10 167.24 82.96 166.44 83.35 165.54
  C 85.63 160.21 84.57 151.67 77.25 151.22
  Q 72.59 150.94 67.62 151.09
  Q 67.13 151.10 67.02 151.60
  L 65.72 157.07
  Q 65.55 157.81 66.30 157.81
  L 66.59 157.81
  Q 67.11 157.81 67.11 158.33
  L 67.11 175.95
  Q 67.11 176.28 67.44 176.28
  L 73.72 176.28
  Q 73.94 176.28 73.94 176.06
  Q 73.90 172.86 73.90 169.95
  A 0.46 0.33 -61.8 0 1 74.61 169.60"
/>
<path stroke="#da8f93" vector-effect="non-scaling-stroke" d="
  M 93.50 168.54
  L 101.06 168.54
  Q 101.62 168.54 101.66 167.98
  C 101.96 163.86 99.99 158.44 95.49 157.65
  Q 92.78 157.18 90.49 158.56
  C 84.94 161.92 85.05 171.07 89.96 174.86
  Q 93.70 177.74 99.58 176.06
  Q 99.87 175.98 99.93 175.69
  L 100.97 170.65
  A 0.16 0.16 0.0 0 0 100.77 170.47
  Q 97.45 171.53 95.04 171.02
  A 2.65 2.64 77.9 0 1 93.44 169.98
  L 93.05 169.44
  Q 92.39 168.54 93.50 168.54"
/>
<path stroke="#808080" vector-effect="non-scaling-stroke" d="
  M 184.61 172.57
  L 184.61 175.39
  Q 184.61 176.31 185.53 176.31
  L 189.90 176.31
  Q 190.82 176.31 191.02 175.41
  L 192.05 170.75
  Q 192.18 170.15 191.56 170.15
  L 191.28 170.15
  Q 190.82 170.15 190.82 169.69
  L 190.82 158.41
  Q 190.82 157.77 190.19 157.79
  L 184.36 158.05
  Q 183.60 158.08 183.52 158.07
  C 175.93 156.38 174.01 164.46 175.22 170.19
  Q 176.56 176.52 182.89 176.23
  Q 183.40 176.21 183.51 175.72
  Q 184.01 173.37 184.35 172.52
  Q 184.61 171.86 184.61 172.57"
/>
<path stroke="#808080" vector-effect="non-scaling-stroke" d="
  M 193.91 167.00
  Q 194.00 175.41 194.01 175.69
  Q 194.02 176.30 194.49 176.30
  L 199.53 176.30
  A 0.73 0.72 6.5 0 0 200.24 175.74
  L 201.33 170.95
  Q 201.45 170.40 200.91 170.25
  L 200.59 170.16
  Q 200.13 170.02 200.13 169.54
  Q 200.12 168.15 200.11 167.16
  Q 200.02 158.75 200.01 158.48
  Q 200.00 157.86 199.53 157.86
  L 194.49 157.86
  A 0.73 0.72 6.5 0 0 193.78 158.42
  L 192.69 163.21
  Q 192.57 163.76 193.11 163.91
  L 193.43 164.00
  Q 193.89 164.14 193.89 164.62
  Q 193.90 166.01 193.91 167.00"
/>
<path stroke="#808080" vector-effect="non-scaling-stroke" d="
  M 168.7718 176.7976
  A 3.96 3.52 92.0 0 0 172.4279 172.9628
  A 3.96 3.52 92.0 0 0 169.0482 168.8824
  A 3.96 3.52 92.0 0 0 165.3921 172.7172
  A 3.96 3.52 92.0 0 0 168.7718 176.7976"
/>
<path stroke="#da8f93" vector-effect="non-scaling-stroke" d="
  M 236.44 230.26
  L 241.11 234.99"
/>
<path stroke="#808080" vector-effect="non-scaling-stroke" d="
  M 241.11 234.99
  Q 246.91 240.79 252.49 246.51
  C 253.49 247.53 254.23 248.47 254.25 250.01
  Q 254.27 251.97 254.29 255.15
  Q 254.29 255.80 254.95 255.80
  L 261.49 255.80
  Q 262.05 255.80 262.05 255.24
  L 262.05 238.42
  A 2.14 2.12 23.4 0 0 261.46 236.95
  L 250.35 225.54"
/>
<path stroke="#da8f93" vector-effect="non-scaling-stroke" d="
  M 250.35 225.54
  L 245.67 220.82"
/>
<path stroke="#808080" vector-effect="non-scaling-stroke" d="
  M 245.67 220.82
  L 233.61 208.22
  A 0.54 0.54 0.0 0 0 232.84 208.21
  L 185.33 255.72
  A 3.31 3.28 22.4 0 1 183.01 256.67
  L 127.07 256.67
  Q 123.05 256.67 123.05 260.69
  Q 123.05 260.94 123.05 260.99
  Q 123.32 265.20 127.48 265.20
  L 182.65 265.18
  Q 183.32 265.18 183.80 265.65
  L 188.46 270.31
  A 0.60 0.59 44.7 0 0 189.31 270.31
  L 203.87 255.75
  A 2.69 2.68 -22.4 0 0 204.67 253.84
  L 204.67 247.89
  A 2.54 2.53 67.3 0 1 205.40 246.11
  L 228.62 222.90
  Q 228.98 222.53 229.35 222.91
  L 236.44 230.26"
/>
<path stroke="#5b1013" vector-effect="non-scaling-stroke" d="
  M 245.67 220.82
  L 236.44 230.26"
/>
<path stroke="#5b1013" vector-effect="non-scaling-stroke" d="
  M 250.35 225.54
  L 241.11 234.99"
/>
<path stroke="#808080" vector-effect="non-scaling-stroke" d="
  M 102.50 224.01
  A 0.51 0.51 0.0 0 0 102.33 224.84
  L 110.06 232.57
  A 0.30 0.30 0.0 0 0 110.48 232.57
  L 123.80 219.25
  Q 124.68 218.37 123.45 218.53
  Q 112.50 219.96 102.50 224.01"
/>
<path stroke="#808080" vector-effect="non-scaling-stroke" d="
  M 99.23 233.12
  A 4.17 4.17 0.0 0 0 95.06 228.95
  A 4.17 4.17 0.0 0 0 90.89 233.12
  A 4.17 4.17 0.0 0 0 95.06 237.29
  A 4.17 4.17 0.0 0 0 99.23 233.12"
/>
<path stroke="#808080" vector-effect="non-scaling-stroke" d="
  M 239.09 266.87
  L 239.09 299.45
  A 0.25 0.25 0.0 0 0 239.52 299.63
  Q 245.26 293.98 246.84 286.84
  Q 247.44 284.13 247.59 272.65
  Q 247.72 263.25 247.64 253.30
  A 3.07 3.04 22.6 0 0 246.73 251.13
  L 229.03 233.42
  A 0.30 0.29 44.3 0 0 228.62 233.42
  L 212.30 249.74
  Q 212.00 250.04 212.00 250.46
  L 212.00 258.81
  Q 212.00 260.11 212.92 261.02
  L 223.04 271.14
  A 2.13 2.12 -67.6 0 1 223.66 272.64
  L 223.58 315.14
  Q 223.57 318.80 227.90 319.38
  Q 227.98 319.39 228.07 319.36
  Q 231.69 318.18 231.72 315.02
  Q 232.06 278.62 232.06 271.75
  Q 232.06 269.71 230.95 268.56
  Q 226.28 263.73 222.01 259.03
  Q 221.66 258.65 221.61 258.13
  Q 221.37 255.26 221.56 251.21
  Q 221.67 248.96 222.75 247.72
  C 227.95 241.72 236.07 250.47 228.84 254.99
  A 0.65 0.65 0.0 0 0 228.73 256.00
  L 238.74 266.01
  Q 239.09 266.37 239.09 266.87"
/>
<path stroke="#808080" vector-effect="non-scaling-stroke" d="
  M 115.75 260.44
  A 4.16 4.16 0.0 0 0 111.59 256.28
  A 4.16 4.16 0.0 0 0 107.43 260.44
  A 4.16 4.16 0.0 0 0 111.59 264.60
  A 4.16 4.16 0.0 0 0 115.75 260.44"
/>
<path stroke="#808080" vector-effect="non-scaling-stroke" d="
  M 262.15 266.72
  A 3.96 3.96 0.0 0 0 258.19 262.76
  A 3.96 3.96 0.0 0 0 254.23 266.72
  A 3.96 3.96 0.0 0 0 258.19 270.68
  A 3.96 3.96 0.0 0 0 262.15 266.72"
/>
<path stroke="#808080" vector-effect="non-scaling-stroke" d="
  M 198.84 270.13
  A 0.57 0.57 0.0 0 0 198.84 270.93
  L 208.69 280.77
  A 0.57 0.57 0.0 0 0 209.10 280.94
  L 215.98 280.94
  A 0.57 0.57 0.0 0 0 216.55 280.37
  L 216.55 275.74
  A 0.57 0.57 0.0 0 0 216.38 275.33
  L 205.42 264.36
  A 0.57 0.57 0.0 0 0 204.62 264.36
  L 198.84 270.13"
/>
<path stroke="#808080" vector-effect="non-scaling-stroke" d="
  M 182.50 274.77
  A 4.05 4.05 0.0 0 0 178.45 270.72
  A 4.05 4.05 0.0 0 0 174.40 274.77
  A 4.05 4.05 0.0 0 0 178.45 278.82
  A 4.05 4.05 0.0 0 0 182.50 274.77"
/>
<path stroke="#808080" vector-effect="non-scaling-stroke" d="
  M 198.11 281.32
  A 4.09 4.09 0.0 0 0 194.02 277.23
  A 4.09 4.09 0.0 0 0 189.93 281.32
  A 4.09 4.09 0.0 0 0 194.02 285.41
  A 4.09 4.09 0.0 0 0 198.11 281.32"
/>
<path stroke="#808080" vector-effect="non-scaling-stroke" d="
  M 215.20 291.50
  A 3.95 3.95 0.0 0 0 211.25 287.55
  A 3.95 3.95 0.0 0 0 207.30 291.50
  A 3.95 3.95 0.0 0 0 211.25 295.45
  A 3.95 3.95 0.0 0 0 215.20 291.50"
/>
<path stroke="#808080" vector-effect="non-scaling-stroke" d="
  M 168.46 78.54
  A 0.35 0.35 0.0 0 0 168.18 79.10
  Q 174.68 87.99 183.20 93.46
  Q 184.18 94.08 183.85 92.97
  Q 181.93 86.60 182.25 79.10
  A 0.53 0.53 0.0 0 0 181.72 78.54
  L 168.46 78.54"
/>
<path stroke="#5b1013" vector-effect="non-scaling-stroke" d="
  M 228.74 190.67
  L 225.09 187.08
  A 1.05 1.05 0.0 0 0 223.61 187.10
  L 200.70 210.41
  A 4.27 3.52 -45.5 0 0 200.22 215.92
  L 200.35 216.04
  A 4.27 3.52 -45.5 0 0 205.85 215.47
  L 228.76 192.16
  A 1.05 1.05 0.0 0 0 228.74 190.67"
/>
<path stroke="#808080" vector-effect="non-scaling-stroke" d="
  M 190.2052 231.0859
  A 5.71 5.49 102.9 0 0 196.8314 226.7456
  A 5.71 5.49 102.9 0 0 192.7548 219.9541
  A 5.71 5.49 102.9 0 0 186.1286 224.2944
  A 5.71 5.49 102.9 0 0 190.2052 231.0859"
/>
<path stroke="#5b1013" vector-effect="non-scaling-stroke" d="
  M 266.06 149.42
  Q 265.92 149.74 266.49 150.42
  Q 269.07 153.46 271.72 156.44
  Q 271.97 156.73 272.35 156.73
  L 282.11 156.93
  Q 282.15 156.93 282.19 156.87
  Q 282.21 156.85 282.22 156.83
  Q 282.23 156.80 282.24 156.77
  Q 282.25 156.70 282.23 156.67
  L 275.71 149.41
  Q 275.46 149.12 275.08 149.12
  Q 271.09 149.06 267.10 149.09
  Q 266.21 149.10 266.06 149.42"
/>
<path stroke="#da8f93" vector-effect="non-scaling-stroke" d="
  M 112.78 169.52
  L 112.58 164.41
  A 0.70 0.70 0.0 0 0 111.85 163.73
  L 111.63 163.74
  A 2.53 2.36 87.7 0 0 109.37 166.37
  L 109.43 167.83
  A 2.53 2.36 87.7 0 0 111.89 170.26
  L 112.11 170.25
  A 0.70 0.70 0.0 0 0 112.78 169.52"
/>
<path stroke="#da8f93" vector-effect="non-scaling-stroke" d="
  M 73.91 158.09
  L 73.91 163.11
  A 0.46 0.46 0.0 0 0 74.37 163.57
  L 74.54 163.57
  A 2.71 2.62 0.0 0 0 77.25 160.95
  L 77.25 160.25
  A 2.71 2.62 -0.0 0 0 74.54 157.63
  L 74.37 157.63
  A 0.46 0.46 0.0 0 0 73.91 158.09"
/>
<path stroke="#da8f93" vector-effect="non-scaling-stroke" d="
  M 92.85 164.86
  L 95.39 164.82
  A 0.30 0.30 0.0 0 0 95.69 164.51
  L 95.68 164.33
  A 1.88 1.47 88.9 0 0 94.18 162.48
  L 93.98 162.48
  A 1.88 1.47 88.9 0 0 92.54 164.39
  L 92.55 164.57
  A 0.30 0.30 0.0 0 0 92.85 164.86"
/>
<path stroke="#808080" vector-effect="non-scaling-stroke" d="
  M 184.67 169.50
  L 184.43 164.31
  A 0.70 0.70 0.0 0 0 183.69 163.64
  L 183.49 163.65
  A 2.66 2.38 87.3 0 0 181.24 166.42
  L 181.30 167.70
  A 2.66 2.38 87.3 0 0 183.80 170.24
  L 184.00 170.23
  A 0.70 0.70 0.0 0 0 184.67 169.50"
/>
</g>
<path fill="#ffffff" d="
  M 375.00 0.00
  L 375.00 374.00
  L 0.00 374.00
  L 0.00 0.00
  L 375.00 0.00
  Z
  M 254.47 142.39
  L 260.86 149.28
  Q 261.23 149.68 261.23 150.23
  L 261.23 160.33
  A 0.51 0.51 0.0 0 1 260.72 160.84
  L 252.18 160.84
  L 228.39 160.87
  A 0.55 0.54 6.7 0 0 227.86 161.28
  Q 222.09 184.51 202.17 197.61
  Q 198.55 199.65 193.51 201.97
  Q 188.02 204.48 184.50 205.55
  Q 178.73 207.39 174.03 208.66
  Q 155.59 213.64 138.26 215.25
  A 2.66 2.63 19.5 0 0 136.64 216.01
  L 119.56 233.09
  A 0.32 0.32 0.0 0 0 119.79 233.63
  Q 127.84 233.50 134.75 233.67
  Q 137.29 233.74 138.14 232.89
  Q 144.26 226.81 150.34 220.67
  A 3.62 3.60 -67.6 0 1 152.87 219.61
  L 171.20 219.40
  Q 172.93 220.63 171.67 222.59
  Q 171.41 223.00 171.63 223.43
  Q 172.49 225.05 171.57 226.72
  L 154.90 226.74
  A 1.33 1.30 -67.4 0 0 153.96 227.14
  L 141.18 239.91
  A 3.34 3.31 22.3 0 1 138.83 240.88
  L 111.27 240.89
  Q 107.39 240.89 107.35 245.21
  Q 107.34 245.55 107.48 246.26
  Q 108.13 249.47 111.41 249.46
  Q 168.46 249.40 178.50 249.59
  Q 180.57 249.63 181.90 248.67
  Q 182.85 247.98 185.05 245.80
  Q 209.14 221.89 233.33 198.14
  A 0.47 0.47 0.0 0 1 234.00 198.15
  L 261.80 226.75
  L 268.25 233.16
  L 268.91 234.08
  Q 269.30 234.61 269.28 235.26
  L 268.66 254.76
  Q 268.64 255.28 268.95 254.86
  C 274.33 247.50 276.36 238.63 276.74 229.33
  Q 276.83 227.30 277.75 229.35
  L 280.98 236.53
  Q 281.43 237.53 281.86 236.32
  Q 284.45 229.11 284.45 220.74
  Q 284.45 212.12 282.19 204.12
  Q 280.01 196.44 279.69 195.03
  Q 279.06 192.26 279.89 190.67
  C 282.81 185.09 288.96 181.57 294.94 180.39
  C 301.48 179.11 309.52 179.59 315.66 179.40
  A 2.97 2.97 0.0 0 0 318.01 178.11
  L 325.17 167.71
  Q 325.41 167.37 325.41 166.94
  L 325.41 156.41
  A 0.79 0.79 0.0 0 0 324.83 155.65
  Q 303.74 149.57 290.36 145.67
  C 289.62 145.46 288.37 144.92 287.81 144.19
  Q 286.19 142.04 285.06 140.69
  A 5.15 5.11 77.7 0 0 282.55 139.06
  L 268.63 135.09
  Q 267.00 134.63 268.61 134.08
  Q 280.01 130.22 293.52 125.52
  C 304.27 121.78 311.93 115.54 313.39 103.39
  Q 313.73 100.51 313.53 93.58
  Q 313.42 89.69 309.53 89.55
  Q 309.34 89.54 309.28 89.54
  Q 305.35 89.44 305.27 93.37
  Q 305.18 98.02 304.81 101.28
  Q 303.72 110.89 294.92 114.10
  Q 293.92 114.47 294.55 113.62
  C 295.57 112.24 297.96 109.44 298.94 107.33
  Q 301.12 102.62 301.22 97.02
  Q 301.36 88.72 301.09 81.95
  Q 300.93 78.17 297.02 77.83
  Q 296.89 77.82 296.86 77.82
  Q 292.97 77.72 292.82 81.54
  Q 292.68 85.00 292.44 96.08
  Q 292.33 101.09 289.60 105.28
  C 286.14 110.57 278.45 113.79 271.90 115.72
  Q 269.99 116.28 271.37 114.85
  Q 277.15 108.82 277.90 101.54
  Q 278.60 94.84 278.07 84.43
  A 4.10 3.55 84.7 0 0 273.97 80.50
  Q 273.91 80.51 273.81 80.51
  Q 269.85 80.41 269.73 84.28
  Q 269.60 88.60 269.63 93.77
  C 269.67 100.51 268.10 106.25 263.10 110.04
  Q 251.62 118.74 237.52 115.36
  Q 234.25 114.58 227.61 112.55
  A 0.32 0.31 38.1 0 1 227.54 111.98
  Q 239.93 104.47 240.70 89.75
  Q 240.93 85.31 240.66 68.90
  Q 240.59 64.78 236.45 64.57
  Q 236.43 64.56 236.20 64.56
  Q 232.14 64.54 232.07 68.59
  Q 231.99 73.88 232.05 82.17
  Q 232.12 91.33 230.39 95.26
  C 225.82 105.64 212.86 108.61 203.46 103.06
  Q 191.46 95.96 191.18 81.52
  Q 191.07 75.89 191.03 33.28
  A 4.47 4.46 2.1 0 0 186.90 28.84
  Q 186.76 28.83 186.73 28.83
  Q 182.50 28.60 182.49 32.80
  L 182.40 69.08
  A 0.47 0.46 -89.4 0 1 181.94 69.54
  L 162.20 69.54
  A 1.44 1.41 71.7 0 1 161.05 68.95
  Q 157.35 63.84 157.12 57.25
  Q 157.07 55.97 156.94 33.80
  Q 156.91 29.75 152.75 29.51
  L 152.58 29.50
  Q 148.38 29.50 148.33 33.59
  Q 148.20 43.72 148.25 57.03
  Q 148.28 65.37 152.85 72.77
  C 160.68 85.47 169.35 96.39 181.17 103.64
  C 191.59 110.04 202.57 114.71 214.77 118.43
  Q 215.96 118.80 229.79 123.19
  Q 239.17 126.17 246.05 133.19
  Q 251.41 138.66 254.47 142.39
  Z
  M 198.08 76.91
  C 200.35 74.77 202.94 71.82 205.28 69.27
  Q 206.38 68.06 206.41 66.01
  Q 206.54 57.03 206.33 46.74
  A 4.35 4.14 89.5 0 0 202.21 42.48
  Q 202.01 42.48 201.94 42.48
  Q 197.76 42.43 197.76 46.61
  L 197.76 76.77
  A 0.19 0.19 0.0 0 0 198.08 76.91
  Z
  M 135.96 76.81
  L 113.76 76.81
  Q 109.45 76.81 109.10 81.12
  Q 109.08 81.42 109.08 81.46
  Q 109.17 85.87 113.50 85.88
  L 154.41 85.95
  A 0.29 0.28 71.6 0 0 154.63 85.49
  C 148.38 76.98 141.87 69.68 133.48 60.64
  A 4.07 4.06 -66.5 0 1 132.39 57.87
  L 132.39 46.44
  Q 132.39 45.77 131.91 46.24
  L 124.28 53.87
  Q 123.76 54.40 123.76 55.29
  L 123.76 61.82
  A 2.52 2.49 -67.0 0 0 124.44 63.54
  L 136.27 76.07
  Q 136.97 76.81 135.96 76.81
  Z
  M 208.58 126.28
  Q 208.20 126.26 208.04 126.41
  A 0.84 0.70 -28.9 0 0 207.77 127.11
  Q 209.27 136.34 215.23 143.81
  Q 222.62 153.07 234.35 153.42
  Q 241.42 153.63 253.85 153.51
  A 0.42 0.42 0.0 0 0 254.15 152.80
  Q 246.46 144.63 240.53 137.97
  Q 235.31 132.11 228.53 129.79
  Q 220.03 126.88 208.58 126.28
  Z
  M 129.46 160.86
  A 0.35 0.35 0.0 0 1 129.11 160.54
  L 128.91 158.24
  A 0.35 0.35 0.0 0 1 129.26 157.86
  L 134.63 157.86
  A 0.35 0.35 0.0 0 0 134.96 157.61
  L 136.97 150.55
  A 0.35 0.35 0.0 0 0 136.60 150.10
  L 122.54 151.30
  A 0.35 0.35 0.0 0 0 122.23 151.55
  L 120.62 157.26
  A 0.35 0.35 0.0 0 0 120.86 157.70
  L 121.94 158.01
  A 0.35 0.35 0.0 0 1 122.19 158.34
  L 122.19 175.93
  A 0.35 0.35 0.0 0 0 122.54 176.28
  L 134.32 176.28
  A 0.35 0.35 0.0 0 0 134.65 176.03
  L 136.39 169.91
  A 0.35 0.35 0.0 0 0 136.06 169.46
  L 129.37 169.46
  A 0.35 0.35 0.0 0 1 129.02 169.11
  L 129.02 166.81
  A 0.35 0.35 0.0 0 1 129.37 166.46
  L 134.67 166.46
  A 0.35 0.35 0.0 0 0 135.00 166.21
  L 136.39 161.31
  A 0.35 0.35 0.0 0 0 136.06 160.86
  L 129.46 160.86
  Z
  M 199.32 156.44
  A 0.41 0.41 0.0 0 0 199.71 156.14
  L 201.21 150.87
  A 0.41 0.41 0.0 0 0 200.82 150.35
  L 195.44 150.35
  A 0.41 0.41 0.0 0 0 195.05 150.65
  L 193.55 155.92
  A 0.41 0.41 0.0 0 0 193.94 156.44
  L 199.32 156.44
  Z
  M 112.78 172.37
  Q 112.89 174.22 112.74 175.19
  Q 112.56 176.32 113.70 176.32
  L 117.80 176.32
  Q 118.76 176.32 119.02 175.39
  L 120.25 171.08
  Q 120.42 170.50 119.84 170.35
  Q 119.48 170.25 119.20 170.00
  Q 118.92 169.75 118.92 168.95
  Q 118.95 158.40 118.93 151.05
  Q 118.93 150.45 118.33 150.45
  L 113.40 150.45
  Q 112.90 150.45 112.77 150.93
  L 111.35 155.90
  Q 111.19 156.46 111.76 156.56
  Q 112.92 156.76 112.93 157.71
  Q 112.93 158.25 112.40 158.14
  Q 104.50 156.48 103.22 164.49
  C 102.33 170.06 103.88 176.61 110.92 176.24
  Q 111.43 176.21 111.56 175.73
  L 112.53 172.35
  Q 112.73 171.64 112.78 172.37
  Z
  M 139.22 163.28
  Q 139.22 174.77 139.28 175.72
  Q 139.32 176.31 139.90 176.31
  L 144.88 176.31
  Q 145.24 176.31 145.34 175.96
  L 146.75 171.00
  Q 146.93 170.40 146.32 170.22
  L 145.87 170.09
  Q 145.45 169.98 145.45 169.54
  Q 145.43 166.52 145.43 163.50
  Q 145.44 152.00 145.38 151.05
  Q 145.33 150.47 144.75 150.47
  L 139.77 150.47
  Q 139.41 150.47 139.31 150.82
  L 137.90 155.78
  Q 137.72 156.38 138.33 156.56
  L 138.78 156.69
  Q 139.20 156.80 139.20 157.24
  Q 139.22 160.26 139.22 163.28
  Z
  M 154.73 163.22
  L 154.73 150.97
  Q 154.73 150.45 154.21 150.45
  L 149.04 150.45
  Q 148.70 150.45 148.61 150.78
  L 147.15 155.89
  A 0.58 0.57 16.8 0 0 147.53 156.59
  Q 147.79 156.68 148.06 156.61
  Q 148.55 156.49 148.55 157.00
  L 148.55 176.04
  Q 148.55 176.28 148.78 176.28
  L 154.45 176.28
  Q 154.72 176.28 154.72 176.01
  L 154.72 170.66
  Q 154.72 168.77 155.32 170.56
  L 157.12 176.00
  A 0.42 0.41 79.9 0 0 157.51 176.28
  L 163.79 176.28
  A 0.25 0.25 0.0 0 0 164.02 175.94
  L 160.15 166.68
  Q 159.97 166.24 160.15 165.79
  L 163.31 158.06
  Q 163.39 157.86 163.18 157.86
  L 157.25 157.86
  A 0.22 0.20 -76.3 0 0 157.06 157.99
  L 154.91 163.25
  Q 154.73 163.71 154.73 163.22
  Z
  M 74.61 169.60
  Q 75.48 172.75 76.57 176.11
  A 0.24 0.24 0.0 0 0 76.80 176.28
  L 84.13 176.28
  A 0.11 0.11 0.0 0 0 84.23 176.12
  L 81.08 168.58
  Q 80.90 168.13 81.29 167.84
  C 82.10 167.24 82.96 166.44 83.35 165.54
  C 85.63 160.21 84.57 151.67 77.25 151.22
  Q 72.59 150.94 67.62 151.09
  Q 67.13 151.10 67.02 151.60
  L 65.72 157.07
  Q 65.55 157.81 66.30 157.81
  L 66.59 157.81
  Q 67.11 157.81 67.11 158.33
  L 67.11 175.95
  Q 67.11 176.28 67.44 176.28
  L 73.72 176.28
  Q 73.94 176.28 73.94 176.06
  Q 73.90 172.86 73.90 169.95
  A 0.46 0.33 -61.8 0 1 74.61 169.60
  Z
  M 93.50 168.54
  L 101.06 168.54
  Q 101.62 168.54 101.66 167.98
  C 101.96 163.86 99.99 158.44 95.49 157.65
  Q 92.78 157.18 90.49 158.56
  C 84.94 161.92 85.05 171.07 89.96 174.86
  Q 93.70 177.74 99.58 176.06
  Q 99.87 175.98 99.93 175.69
  L 100.97 170.65
  A 0.16 0.16 0.0 0 0 100.77 170.47
  Q 97.45 171.53 95.04 171.02
  A 2.65 2.64 77.9 0 1 93.44 169.98
  L 93.05 169.44
  Q 92.39 168.54 93.50 168.54
  Z
  M 184.61 172.57
  L 184.61 175.39
  Q 184.61 176.31 185.53 176.31
  L 189.90 176.31
  Q 190.82 176.31 191.02 175.41
  L 192.05 170.75
  Q 192.18 170.15 191.56 170.15
  L 191.28 170.15
  Q 190.82 170.15 190.82 169.69
  L 190.82 158.41
  Q 190.82 157.77 190.19 157.79
  L 184.36 158.05
  Q 183.60 158.08 183.52 158.07
  C 175.93 156.38 174.01 164.46 175.22 170.19
  Q 176.56 176.52 182.89 176.23
  Q 183.40 176.21 183.51 175.72
  Q 184.01 173.37 184.35 172.52
  Q 184.61 171.86 184.61 172.57
  Z
  M 193.91 167.00
  Q 194.00 175.41 194.01 175.69
  Q 194.02 176.30 194.49 176.30
  L 199.53 176.30
  A 0.73 0.72 6.5 0 0 200.24 175.74
  L 201.33 170.95
  Q 201.45 170.40 200.91 170.25
  L 200.59 170.16
  Q 200.13 170.02 200.13 169.54
  Q 200.12 168.15 200.11 167.16
  Q 200.02 158.75 200.01 158.48
  Q 200.00 157.86 199.53 157.86
  L 194.49 157.86
  A 0.73 0.72 6.5 0 0 193.78 158.42
  L 192.69 163.21
  Q 192.57 163.76 193.11 163.91
  L 193.43 164.00
  Q 193.89 164.14 193.89 164.62
  Q 193.90 166.01 193.91 167.00
  Z
  M 168.7718 176.7976
  A 3.96 3.52 92.0 0 0 172.4279 172.9628
  A 3.96 3.52 92.0 0 0 169.0482 168.8824
  A 3.96 3.52 92.0 0 0 165.3921 172.7172
  A 3.96 3.52 92.0 0 0 168.7718 176.7976
  Z
  M 236.44 230.26
  L 241.11 234.99
  Q 246.91 240.79 252.49 246.51
  C 253.49 247.53 254.23 248.47 254.25 250.01
  Q 254.27 251.97 254.29 255.15
  Q 254.29 255.80 254.95 255.80
  L 261.49 255.80
  Q 262.05 255.80 262.05 255.24
  L 262.05 238.42
  A 2.14 2.12 23.4 0 0 261.46 236.95
  L 250.35 225.54
  L 245.67 220.82
  L 233.61 208.22
  A 0.54 0.54 0.0 0 0 232.84 208.21
  L 185.33 255.72
  A 3.31 3.28 22.4 0 1 183.01 256.67
  L 127.07 256.67
  Q 123.05 256.67 123.05 260.69
  Q 123.05 260.94 123.05 260.99
  Q 123.32 265.20 127.48 265.20
  L 182.65 265.18
  Q 183.32 265.18 183.80 265.65
  L 188.46 270.31
  A 0.60 0.59 44.7 0 0 189.31 270.31
  L 203.87 255.75
  A 2.69 2.68 -22.4 0 0 204.67 253.84
  L 204.67 247.89
  A 2.54 2.53 67.3 0 1 205.40 246.11
  L 228.62 222.90
  Q 228.98 222.53 229.35 222.91
  L 236.44 230.26
  Z
  M 102.50 224.01
  A 0.51 0.51 0.0 0 0 102.33 224.84
  L 110.06 232.57
  A 0.30 0.30 0.0 0 0 110.48 232.57
  L 123.80 219.25
  Q 124.68 218.37 123.45 218.53
  Q 112.50 219.96 102.50 224.01
  Z
  M 99.23 233.12
  A 4.17 4.17 0.0 0 0 95.06 228.95
  A 4.17 4.17 0.0 0 0 90.89 233.12
  A 4.17 4.17 0.0 0 0 95.06 237.29
  A 4.17 4.17 0.0 0 0 99.23 233.12
  Z
  M 239.09 266.87
  L 239.09 299.45
  A 0.25 0.25 0.0 0 0 239.52 299.63
  Q 245.26 293.98 246.84 286.84
  Q 247.44 284.13 247.59 272.65
  Q 247.72 263.25 247.64 253.30
  A 3.07 3.04 22.6 0 0 246.73 251.13
  L 229.03 233.42
  A 0.30 0.29 44.3 0 0 228.62 233.42
  L 212.30 249.74
  Q 212.00 250.04 212.00 250.46
  L 212.00 258.81
  Q 212.00 260.11 212.92 261.02
  L 223.04 271.14
  A 2.13 2.12 -67.6 0 1 223.66 272.64
  L 223.58 315.14
  Q 223.57 318.80 227.90 319.38
  Q 227.98 319.39 228.07 319.36
  Q 231.69 318.18 231.72 315.02
  Q 232.06 278.62 232.06 271.75
  Q 232.06 269.71 230.95 268.56
  Q 226.28 263.73 222.01 259.03
  Q 221.66 258.65 221.61 258.13
  Q 221.37 255.26 221.56 251.21
  Q 221.67 248.96 222.75 247.72
  C 227.95 241.72 236.07 250.47 228.84 254.99
  A 0.65 0.65 0.0 0 0 228.73 256.00
  L 238.74 266.01
  Q 239.09 266.37 239.09 266.87
  Z
  M 115.75 260.44
  A 4.16 4.16 0.0 0 0 111.59 256.28
  A 4.16 4.16 0.0 0 0 107.43 260.44
  A 4.16 4.16 0.0 0 0 111.59 264.60
  A 4.16 4.16 0.0 0 0 115.75 260.44
  Z
  M 262.15 266.72
  A 3.96 3.96 0.0 0 0 258.19 262.76
  A 3.96 3.96 0.0 0 0 254.23 266.72
  A 3.96 3.96 0.0 0 0 258.19 270.68
  A 3.96 3.96 0.0 0 0 262.15 266.72
  Z
  M 198.84 270.13
  A 0.57 0.57 0.0 0 0 198.84 270.93
  L 208.69 280.77
  A 0.57 0.57 0.0 0 0 209.10 280.94
  L 215.98 280.94
  A 0.57 0.57 0.0 0 0 216.55 280.37
  L 216.55 275.74
  A 0.57 0.57 0.0 0 0 216.38 275.33
  L 205.42 264.36
  A 0.57 0.57 0.0 0 0 204.62 264.36
  L 198.84 270.13
  Z
  M 182.50 274.77
  A 4.05 4.05 0.0 0 0 178.45 270.72
  A 4.05 4.05 0.0 0 0 174.40 274.77
  A 4.05 4.05 0.0 0 0 178.45 278.82
  A 4.05 4.05 0.0 0 0 182.50 274.77
  Z
  M 198.11 281.32
  A 4.09 4.09 0.0 0 0 194.02 277.23
  A 4.09 4.09 0.0 0 0 189.93 281.32
  A 4.09 4.09 0.0 0 0 194.02 285.41
  A 4.09 4.09 0.0 0 0 198.11 281.32
  Z
  M 215.20 291.50
  A 3.95 3.95 0.0 0 0 211.25 287.55
  A 3.95 3.95 0.0 0 0 207.30 291.50
  A 3.95 3.95 0.0 0 0 211.25 295.45
  A 3.95 3.95 0.0 0 0 215.20 291.50
  Z"
/>
<path fill="#000000" d="
  M 268.25 233.16
  Q 268.55 232.97 268.74 232.76
  Q 268.92 232.56 268.92 232.19
  Q 268.94 221.77 268.79 210.70
  A 3.22 3.18 22.9 0 0 267.90 208.54
  L 241.51 181.17
  A 2.10 2.07 23.3 0 1 240.92 179.72
  L 240.92 168.52
  Q 240.92 168.11 240.51 168.11
  L 234.52 168.11
  Q 234.08 168.11 234.07 168.55
  Q 234.01 172.41 234.02 181.25
  C 234.03 183.48 235.40 184.97 236.80 186.45
  Q 249.04 199.32 261.42 211.81
  A 1.71 1.67 -67.6 0 1 261.91 213.03
  L 261.80 226.75
  L 234.00 198.15
  A 0.47 0.47 0.0 0 0 233.33 198.14
  Q 209.14 221.89 185.05 245.80
  Q 182.85 247.98 181.90 248.67
  Q 180.57 249.63 178.50 249.59
  Q 168.46 249.40 111.41 249.46
  Q 108.13 249.47 107.48 246.26
  Q 107.34 245.55 107.35 245.21
  Q 107.39 240.89 111.27 240.89
  L 138.83 240.88
  A 3.34 3.31 22.3 0 0 141.18 239.91
  L 153.96 227.14
  A 1.33 1.30 -67.4 0 1 154.90 226.74
  L 171.57 226.72
  L 171.49 233.28
  Q 171.49 233.79 170.97 233.79
  L 161.02 233.79
  Q 159.48 233.79 158.39 234.88
  L 153.14 240.13
  Q 152.26 241.01 153.50 241.01
  L 178.25 241.01
  A 0.38 0.37 90.0 0 0 178.62 240.63
  L 178.62 221.77
  A 2.32 2.29 -22.5 0 1 179.31 220.13
  L 202.17 197.61
  Q 222.09 184.51 227.86 161.28
  A 0.55 0.54 6.7 0 1 228.39 160.87
  L 252.18 160.84
  L 252.27 173.13
  Q 252.28 173.76 252.73 174.21
  L 260.95 182.43
  A 0.83 0.83 0.0 0 0 262.13 182.43
  C 265.61 178.89 268.66 176.40 273.48 174.68
  Q 281.40 171.85 290.00 171.84
  Q 315.65 171.79 316.40 171.78
  A 2.32 2.06 -20.5 0 0 318.29 168.22
  L 312.06 161.90
  Q 311.64 161.47 312.13 161.13
  L 314.39 159.54
  Q 315.25 158.94 314.25 158.65
  L 286.26 150.68
  A 4.73 4.70 76.4 0 1 284.09 149.35
  Q 281.01 146.04 278.49 143.51
  Q 277.26 142.28 275.50 142.24
  Q 265.20 142.03 254.47 142.39
  Q 251.41 138.66 246.05 133.19
  Q 239.17 126.17 229.79 123.19
  Q 215.96 118.80 214.77 118.43
  C 202.57 114.71 191.59 110.04 181.17 103.64
  C 169.35 96.39 160.68 85.47 152.85 72.77
  Q 148.28 65.37 148.25 57.03
  Q 148.20 43.72 148.33 33.59
  Q 148.38 29.50 152.58 29.50
  L 152.75 29.51
  Q 156.91 29.75 156.94 33.80
  Q 157.07 55.97 157.12 57.25
  Q 157.35 63.84 161.05 68.95
  A 1.44 1.41 71.7 0 0 162.20 69.54
  L 181.94 69.54
  A 0.47 0.46 -89.4 0 0 182.40 69.08
  L 182.49 32.80
  Q 182.50 28.60 186.73 28.83
  Q 186.76 28.83 186.90 28.84
  A 4.47 4.46 2.1 0 1 191.03 33.28
  Q 191.07 75.89 191.18 81.52
  Q 191.46 95.96 203.46 103.06
  C 212.86 108.61 225.82 105.64 230.39 95.26
  Q 232.12 91.33 232.05 82.17
  Q 231.99 73.88 232.07 68.59
  Q 232.14 64.54 236.20 64.56
  Q 236.43 64.56 236.45 64.57
  Q 240.59 64.78 240.66 68.90
  Q 240.93 85.31 240.70 89.75
  Q 239.93 104.47 227.54 111.98
  A 0.32 0.31 38.1 0 0 227.61 112.55
  Q 234.25 114.58 237.52 115.36
  Q 251.62 118.74 263.10 110.04
  C 268.10 106.25 269.67 100.51 269.63 93.77
  Q 269.60 88.60 269.73 84.28
  Q 269.85 80.41 273.81 80.51
  Q 273.91 80.51 273.97 80.50
  A 4.10 3.55 84.7 0 1 278.07 84.43
  Q 278.60 94.84 277.90 101.54
  Q 277.15 108.82 271.37 114.85
  Q 269.99 116.28 271.90 115.72
  C 278.45 113.79 286.14 110.57 289.60 105.28
  Q 292.33 101.09 292.44 96.08
  Q 292.68 85.00 292.82 81.54
  Q 292.97 77.72 296.86 77.82
  Q 296.89 77.82 297.02 77.83
  Q 300.93 78.17 301.09 81.95
  Q 301.36 88.72 301.22 97.02
  Q 301.12 102.62 298.94 107.33
  C 297.96 109.44 295.57 112.24 294.55 113.62
  Q 293.92 114.47 294.92 114.10
  Q 303.72 110.89 304.81 101.28
  Q 305.18 98.02 305.27 93.37
  Q 305.35 89.44 309.28 89.54
  Q 309.34 89.54 309.53 89.55
  Q 313.42 89.69 313.53 93.58
  Q 313.73 100.51 313.39 103.39
  C 311.93 115.54 304.27 121.78 293.52 125.52
  Q 280.01 130.22 268.61 134.08
  Q 267.00 134.63 268.63 135.09
  L 282.55 139.06
  A 5.15 5.11 77.7 0 1 285.06 140.69
  Q 286.19 142.04 287.81 144.19
  C 288.37 144.92 289.62 145.46 290.36 145.67
  Q 303.74 149.57 324.83 155.65
  A 0.79 0.79 0.0 0 1 325.41 156.41
  L 325.41 166.94
  Q 325.41 167.37 325.17 167.71
  L 318.01 178.11
  A 2.97 2.97 0.0 0 1 315.66 179.40
  C 309.52 179.59 301.48 179.11 294.94 180.39
  C 288.96 181.57 282.81 185.09 279.89 190.67
  Q 279.06 192.26 279.69 195.03
  Q 280.01 196.44 282.19 204.12
  Q 284.45 212.12 284.45 220.74
  Q 284.45 229.11 281.86 236.32
  Q 281.43 237.53 280.98 236.53
  L 277.75 229.35
  Q 276.83 227.30 276.74 229.33
  C 276.36 238.63 274.33 247.50 268.95 254.86
  Q 268.64 255.28 268.66 254.76
  L 269.28 235.26
  Q 269.30 234.61 268.91 234.08
  L 268.25 233.16
  Z
  M 168.46 78.54
  A 0.35 0.35 0.0 0 0 168.18 79.10
  Q 174.68 87.99 183.20 93.46
  Q 184.18 94.08 183.85 92.97
  Q 181.93 86.60 182.25 79.10
  A 0.53 0.53 0.0 0 0 181.72 78.54
  L 168.46 78.54
  Z
  M 228.74 190.67
  L 225.09 187.08
  A 1.05 1.05 0.0 0 0 223.61 187.10
  L 200.70 210.41
  A 4.27 3.52 -45.5 0 0 200.22 215.92
  L 200.35 216.04
  A 4.27 3.52 -45.5 0 0 205.85 215.47
  L 228.76 192.16
  A 1.05 1.05 0.0 0 0 228.74 190.67
  Z
  M 190.2052 231.0859
  A 5.71 5.49 102.9 0 0 196.8314 226.7456
  A 5.71 5.49 102.9 0 0 192.7548 219.9541
  A 5.71 5.49 102.9 0 0 186.1286 224.2944
  A 5.71 5.49 102.9 0 0 190.2052 231.0859
  Z"
/>
<path fill="#000000" d="
  M 205.28 69.27
  C 202.94 71.82 200.35 74.77 198.08 76.91
  A 0.19 0.19 0.0 0 1 197.76 76.77
  L 197.76 46.61
  Q 197.76 42.43 201.94 42.48
  Q 202.01 42.48 202.21 42.48
  A 4.35 4.14 89.5 0 1 206.33 46.74
  Q 206.54 57.03 206.41 66.01
  Q 206.38 68.06 205.28 69.27
  Z"
/>
<path fill="#000000" d="
  M 135.96 76.81
  Q 136.97 76.81 136.27 76.07
  L 124.44 63.54
  A 2.52 2.49 -67.0 0 1 123.76 61.82
  L 123.76 55.29
  Q 123.76 54.40 124.28 53.87
  L 131.91 46.24
  Q 132.39 45.77 132.39 46.44
  L 132.39 57.87
  A 4.07 4.06 -66.5 0 0 133.48 60.64
  C 141.87 69.68 148.38 76.98 154.63 85.49
  A 0.29 0.28 71.6 0 1 154.41 85.95
  L 113.50 85.88
  Q 109.17 85.87 109.08 81.46
  Q 109.08 81.42 109.10 81.12
  Q 109.45 76.81 113.76 76.81
  L 135.96 76.81
  Z"
/>
<path fill="#ffffff" d="
  M 168.46 78.54
  L 181.72 78.54
  A 0.53 0.53 0.0 0 1 182.25 79.10
  Q 181.93 86.60 183.85 92.97
  Q 184.18 94.08 183.20 93.46
  Q 174.68 87.99 168.18 79.10
  A 0.35 0.35 0.0 0 1 168.46 78.54
  Z"
/>
<path fill="#000000" d="
  M 208.58 126.28
  Q 220.03 126.88 228.53 129.79
  Q 235.31 132.11 240.53 137.97
  Q 246.46 144.63 254.15 152.80
  A 0.42 0.42 0.0 0 1 253.85 153.51
  Q 241.42 153.63 234.35 153.42
  Q 222.62 153.07 215.23 143.81
  Q 209.27 136.34 207.77 127.11
  A 0.84 0.70 -28.9 0 1 208.04 126.41
  Q 208.20 126.26 208.58 126.28
  Z"
/>
<path fill="#b51f26" d="
  M 252.18 160.84
  L 260.72 160.84
  A 0.51 0.51 0.0 0 0 261.23 160.33
  L 261.23 150.23
  Q 261.23 149.68 260.86 149.28
  L 254.47 142.39
  Q 265.20 142.03 275.50 142.24
  Q 277.26 142.28 278.49 143.51
  Q 281.01 146.04 284.09 149.35
  A 4.73 4.70 76.4 0 0 286.26 150.68
  L 314.25 158.65
  Q 315.25 158.94 314.39 159.54
  L 312.13 161.13
  Q 311.64 161.47 312.06 161.90
  L 318.29 168.22
  A 2.32 2.06 -20.5 0 1 316.40 171.78
  Q 315.65 171.79 290.00 171.84
  Q 281.40 171.85 273.48 174.68
  C 268.66 176.40 265.61 178.89 262.13 182.43
  A 0.83 0.83 0.0 0 1 260.95 182.43
  L 252.73 174.21
  Q 252.28 173.76 252.27 173.13
  L 252.18 160.84
  Z
  M 266.06 149.42
  Q 265.92 149.74 266.49 150.42
  Q 269.07 153.46 271.72 156.44
  Q 271.97 156.73 272.35 156.73
  L 282.11 156.93
  Q 282.15 156.93 282.19 156.87
  Q 282.21 156.85 282.22 156.83
  Q 282.23 156.80 282.24 156.77
  Q 282.25 156.70 282.23 156.67
  L 275.71 149.41
  Q 275.46 149.12 275.08 149.12
  Q 271.09 149.06 267.10 149.09
  Q 266.21 149.10 266.06 149.42
  Z"
/>
<path fill="#000000" d="
  M 282.22 156.83
  Q 282.21 156.85 282.19 156.87
  Q 282.15 156.93 282.11 156.93
  L 272.35 156.73
  Q 271.97 156.73 271.72 156.44
  Q 269.07 153.46 266.49 150.42
  Q 265.92 149.74 266.06 149.42
  Q 266.21 149.10 267.10 149.09
  Q 271.09 149.06 275.08 149.12
  Q 275.46 149.12 275.71 149.41
  L 282.23 156.67
  Q 282.25 156.70 282.24 156.77
  Q 282.23 156.80 282.22 156.83
  Z"
/>
<path fill="#b51f26" d="
  M 129.46 160.86
  L 136.06 160.86
  A 0.35 0.35 0.0 0 1 136.39 161.31
  L 135.00 166.21
  A 0.35 0.35 0.0 0 1 134.67 166.46
  L 129.37 166.46
  A 0.35 0.35 0.0 0 0 129.02 166.81
  L 129.02 169.11
  A 0.35 0.35 0.0 0 0 129.37 169.46
  L 136.06 169.46
  A 0.35 0.35 0.0 0 1 136.39 169.91
  L 134.65 176.03
  A 0.35 0.35 0.0 0 1 134.32 176.28
  L 122.54 176.28
  A 0.35 0.35 0.0 0 1 122.19 175.93
  L 122.19 158.34
  A 0.35 0.35 0.0 0 0 121.94 158.01
  L 120.86 157.70
  A 0.35 0.35 0.0 0 1 120.62 157.26
  L 122.23 151.55
  A 0.35 0.35 0.0 0 1 122.54 151.30
  L 136.60 150.10
  A 0.35 0.35 0.0 0 1 136.97 150.55
  L 134.96 157.61
  A 0.35 0.35 0.0 0 1 134.63 157.86
  L 129.26 157.86
  A 0.35 0.35 0.0 0 0 128.91 158.24
  L 129.11 160.54
  A 0.35 0.35 0.0 0 0 129.46 160.86
  Z"
/>
<path fill="#000000" d="
  M 199.32 156.44
  L 193.94 156.44
  A 0.41 0.41 0.0 0 1 193.55 155.92
  L 195.05 150.65
  A 0.41 0.41 0.0 0 1 195.44 150.35
  L 200.82 150.35
  A 0.41 0.41 0.0 0 1 201.21 150.87
  L 199.71 156.14
  A 0.41 0.41 0.0 0 1 199.32 156.44
  Z"
/>
<path fill="#b51f26" d="
  M 112.53 172.35
  L 111.56 175.73
  Q 111.43 176.21 110.92 176.24
  C 103.88 176.61 102.33 170.06 103.22 164.49
  Q 104.50 156.48 112.40 158.14
  Q 112.93 158.25 112.93 157.71
  Q 112.92 156.76 111.76 156.56
  Q 111.19 156.46 111.35 155.90
  L 112.77 150.93
  Q 112.90 150.45 113.40 150.45
  L 118.33 150.45
  Q 118.93 150.45 118.93 151.05
  Q 118.95 158.40 118.92 168.95
  Q 118.92 169.75 119.20 170.00
  Q 119.48 170.25 119.84 170.35
  Q 120.42 170.50 120.25 171.08
  L 119.02 175.39
  Q 118.76 176.32 117.80 176.32
  L 113.70 176.32
  Q 112.56 176.32 112.74 175.19
  Q 112.89 174.22 112.78 172.37
  Q 112.73 171.64 112.53 172.35
  Z
  M 112.78 169.52
  L 112.58 164.41
  A 0.70 0.70 0.0 0 0 111.85 163.73
  L 111.63 163.74
  A 2.53 2.36 87.7 0 0 109.37 166.37
  L 109.43 167.83
  A 2.53 2.36 87.7 0 0 111.89 170.26
  L 112.11 170.25
  A 0.70 0.70 0.0 0 0 112.78 169.52
  Z"
/>
<path fill="#b51f26" d="
  M 145.43 163.50
  Q 145.43 166.52 145.45 169.54
  Q 145.45 169.98 145.87 170.09
  L 146.32 170.22
  Q 146.93 170.40 146.75 171.00
  L 145.34 175.96
  Q 145.24 176.31 144.88 176.31
  L 139.90 176.31
  Q 139.32 176.31 139.28 175.72
  Q 139.22 174.77 139.22 163.28
  Q 139.22 160.26 139.20 157.24
  Q 139.20 156.80 138.78 156.69
  L 138.33 156.56
  Q 137.72 156.38 137.90 155.78
  L 139.31 150.82
  Q 139.41 150.47 139.77 150.47
  L 144.75 150.47
  Q 145.33 150.47 145.38 151.05
  Q 145.44 152.00 145.43 163.50
  Z"
/>
<path fill="#b51f26" d="
  M 154.91 163.25
  L 157.06 157.99
  A 0.22 0.20 -76.3 0 1 157.25 157.86
  L 163.18 157.86
  Q 163.39 157.86 163.31 158.06
  L 160.15 165.79
  Q 159.97 166.24 160.15 166.68
  L 164.02 175.94
  A 0.25 0.25 0.0 0 1 163.79 176.28
  L 157.51 176.28
  A 0.42 0.41 79.9 0 1 157.12 176.00
  L 155.32 170.56
  Q 154.72 168.77 154.72 170.66
  L 154.72 176.01
  Q 154.72 176.28 154.45 176.28
  L 148.78 176.28
  Q 148.55 176.28 148.55 176.04
  L 148.55 157.00
  Q 148.55 156.49 148.06 156.61
  Q 147.79 156.68 147.53 156.59
  A 0.58 0.57 16.8 0 1 147.15 155.89
  L 148.61 150.78
  Q 148.70 150.45 149.04 150.45
  L 154.21 150.45
  Q 154.73 150.45 154.73 150.97
  L 154.73 163.22
  Q 154.73 163.71 154.91 163.25
  Z"
/>
<path fill="#b51f26" d="
  M 74.61 169.60
  A 0.46 0.33 -61.8 0 0 73.90 169.95
  Q 73.90 172.86 73.94 176.06
  Q 73.94 176.28 73.72 176.28
  L 67.44 176.28
  Q 67.11 176.28 67.11 175.95
  L 67.11 158.33
  Q 67.11 157.81 66.59 157.81
  L 66.30 157.81
  Q 65.55 157.81 65.72 157.07
  L 67.02 151.60
  Q 67.13 151.10 67.62 151.09
  Q 72.59 150.94 77.25 151.22
  C 84.57 151.67 85.63 160.21 83.35 165.54
  C 82.96 166.44 82.10 167.24 81.29 167.84
  Q 80.90 168.13 81.08 168.58
  L 84.23 176.12
  A 0.11 0.11 0.0 0 1 84.13 176.28
  L 76.80 176.28
  A 0.24 0.24 0.0 0 1 76.57 176.11
  Q 75.48 172.75 74.61 169.60
  Z
  M 73.91 158.09
  L 73.91 163.11
  A 0.46 0.46 0.0 0 0 74.37 163.57
  L 74.54 163.57
  A 2.71 2.62 0.0 0 0 77.25 160.95
  L 77.25 160.25
  A 2.71 2.62 -0.0 0 0 74.54 157.63
  L 74.37 157.63
  A 0.46 0.46 0.0 0 0 73.91 158.09
  Z"
/>
<path fill="#b51f26" d="
  M 93.50 168.54
  Q 92.39 168.54 93.05 169.44
  L 93.44 169.98
  A 2.65 2.64 77.9 0 0 95.04 171.02
  Q 97.45 171.53 100.77 170.47
  A 0.16 0.16 0.0 0 1 100.97 170.65
  L 99.93 175.69
  Q 99.87 175.98 99.58 176.06
  Q 93.70 177.74 89.96 174.86
  C 85.05 171.07 84.94 161.92 90.49 158.56
  Q 92.78 157.18 95.49 157.65
  C 99.99 158.44 101.96 163.86 101.66 167.98
  Q 101.62 168.54 101.06 168.54
  L 93.50 168.54
  Z
  M 92.85 164.86
  L 95.39 164.82
  A 0.30 0.30 0.0 0 0 95.69 164.51
  L 95.68 164.33
  A 1.88 1.47 88.9 0 0 94.18 162.48
  L 93.98 162.48
  A 1.88 1.47 88.9 0 0 92.54 164.39
  L 92.55 164.57
  A 0.30 0.30 0.0 0 0 92.85 164.86
  Z"
/>
<path fill="#ffffff" d="
  M 73.91 158.09
  A 0.46 0.46 0.0 0 1 74.37 157.63
  L 74.54 157.63
  A 2.71 2.62 -0.0 0 1 77.25 160.25
  L 77.25 160.95
  A 2.71 2.62 0.0 0 1 74.54 163.57
  L 74.37 163.57
  A 0.46 0.46 0.0 0 1 73.91 163.11
  L 73.91 158.09
  Z"
/>
<path fill="#000000" d="
  M 184.35 172.52
  Q 184.01 173.37 183.51 175.72
  Q 183.40 176.21 182.89 176.23
  Q 176.56 176.52 175.22 170.19
  C 174.01 164.46 175.93 156.38 183.52 158.07
  Q 183.60 158.08 184.36 158.05
  L 190.19 157.79
  Q 190.82 157.77 190.82 158.41
  L 190.82 169.69
  Q 190.82 170.15 191.28 170.15
  L 191.56 170.15
  Q 192.18 170.15 192.05 170.75
  L 191.02 175.41
  Q 190.82 176.31 189.90 176.31
  L 185.53 176.31
  Q 184.61 176.31 184.61 175.39
  L 184.61 172.57
  Q 184.61 171.86 184.35 172.52
  Z
  M 184.67 169.50
  L 184.43 164.31
  A 0.70 0.70 0.0 0 0 183.69 163.64
  L 183.49 163.65
  A 2.66 2.38 87.3 0 0 181.24 166.42
  L 181.30 167.70
  A 2.66 2.38 87.3 0 0 183.80 170.24
  L 184.00 170.23
  A 0.70 0.70 0.0 0 0 184.67 169.50
  Z"
/>
<path fill="#000000" d="
  M 193.91 167.00
  Q 193.90 166.01 193.89 164.62
  Q 193.89 164.14 193.43 164.00
  L 193.11 163.91
  Q 192.57 163.76 192.69 163.21
  L 193.78 158.42
  A 0.73 0.72 6.5 0 1 194.49 157.86
  L 199.53 157.86
  Q 200.00 157.86 200.01 158.48
  Q 200.02 158.75 200.11 167.16
  Q 200.12 168.15 200.13 169.54
  Q 200.13 170.02 200.59 170.16
  L 200.91 170.25
  Q 201.45 170.40 201.33 170.95
  L 200.24 175.74
  A 0.73 0.72 6.5 0 1 199.53 176.30
  L 194.49 176.30
  Q 194.02 176.30 194.01 175.69
  Q 194.00 175.41 193.91 167.00
  Z"
/>
<path fill="#ffffff" d="
  M 92.85 164.86
  A 0.30 0.30 0.0 0 1 92.55 164.57
  L 92.54 164.39
  A 1.88 1.47 88.9 0 1 93.98 162.48
  L 94.18 162.48
  A 1.88 1.47 88.9 0 1 95.68 164.33
  L 95.69 164.51
  A 0.30 0.30 0.0 0 1 95.39 164.82
  L 92.85 164.86
  Z"
/>
<path fill="#ffffff" d="
  M 112.78 169.52
  A 0.70 0.70 0.0 0 1 112.11 170.25
  L 111.89 170.26
  A 2.53 2.36 87.7 0 1 109.43 167.83
  L 109.37 166.37
  A 2.53 2.36 87.7 0 1 111.63 163.74
  L 111.85 163.73
  A 0.70 0.70 0.0 0 1 112.58 164.41
  L 112.78 169.52
  Z"
/>
<path fill="#ffffff" d="
  M 184.67 169.50
  A 0.70 0.70 0.0 0 1 184.00 170.23
  L 183.80 170.24
  A 2.66 2.38 87.3 0 1 181.30 167.70
  L 181.24 166.42
  A 2.66 2.38 87.3 0 1 183.49 163.65
  L 183.69 163.64
  A 0.70 0.70 0.0 0 1 184.43 164.31
  L 184.67 169.50
  Z"
/>
<path fill="#b51f26" d="
  M 268.25 233.16
  L 261.80 226.75
  L 261.91 213.03
  A 1.71 1.67 -67.6 0 0 261.42 211.81
  Q 249.04 199.32 236.80 186.45
  C 235.40 184.97 234.03 183.48 234.02 181.25
  Q 234.01 172.41 234.07 168.55
  Q 234.08 168.11 234.52 168.11
  L 240.51 168.11
  Q 240.92 168.11 240.92 168.52
  L 240.92 179.72
  A 2.10 2.07 23.3 0 0 241.51 181.17
  L 267.90 208.54
  A 3.22 3.18 22.9 0 1 268.79 210.70
  Q 268.94 221.77 268.92 232.19
  Q 268.92 232.56 268.74 232.76
  Q 268.55 232.97 268.25 233.16
  Z"
/>
<ellipse fill="#000000" cx="0.00" cy="0.00" transform="translate(168.91,172.84) rotate(92.0)" rx="3.96" ry="3.52"/>
<path fill="#b51f26" d="
  M 228.74 190.67
  A 1.05 1.05 0.0 0 1 228.76 192.16
  L 205.85 215.47
  A 4.27 3.52 -45.5 0 1 200.35 216.04
  L 200.22 215.92
  A 4.27 3.52 -45.5 0 1 200.70 210.41
  L 223.61 187.10
  A 1.05 1.05 0.0 0 1 225.09 187.08
  L 228.74 190.67
  Z"
/>
<path fill="#b51f26" d="
  M 202.17 197.61
  L 179.31 220.13
  A 2.32 2.29 -22.5 0 0 178.62 221.77
  L 178.62 240.63
  A 0.38 0.37 -90.0 0 1 178.25 241.01
  L 153.50 241.01
  Q 152.26 241.01 153.14 240.13
  L 158.39 234.88
  Q 159.48 233.79 161.02 233.79
  L 170.97 233.79
  Q 171.49 233.79 171.49 233.28
  L 171.57 226.72
  Q 172.49 225.05 171.63 223.43
  Q 171.41 223.00 171.67 222.59
  Q 172.93 220.63 171.20 219.40
  L 184.50 205.55
  Q 188.02 204.48 193.51 201.97
  Q 198.55 199.65 202.17 197.61
  Z"
/>
<path fill="#000000" d="
  M 184.50 205.55
  L 171.20 219.40
  L 152.87 219.61
  A 3.62 3.60 -67.6 0 0 150.34 220.67
  Q 144.26 226.81 138.14 232.89
  Q 137.29 233.74 134.75 233.67
  Q 127.84 233.50 119.79 233.63
  A 0.32 0.32 0.0 0 1 119.56 233.09
  L 136.64 216.01
  A 2.66 2.63 19.5 0 1 138.26 215.25
  Q 155.59 213.64 174.03 208.66
  Q 178.73 207.39 184.50 205.55
  Z"
/>
<path fill="#000000" d="
  M 245.67 220.82
  L 236.44 230.26
  L 229.35 222.91
  Q 228.98 222.53 228.62 222.90
  L 205.40 246.11
  A 2.54 2.53 67.3 0 0 204.67 247.89
  L 204.67 253.84
  A 2.69 2.68 -22.4 0 1 203.87 255.75
  L 189.31 270.31
  A 0.60 0.59 44.7 0 1 188.46 270.31
  L 183.80 265.65
  Q 183.32 265.18 182.65 265.18
  L 127.48 265.20
  Q 123.32 265.20 123.05 260.99
  Q 123.05 260.94 123.05 260.69
  Q 123.05 256.67 127.07 256.67
  L 183.01 256.67
  A 3.31 3.28 22.4 0 0 185.33 255.72
  L 232.84 208.21
  A 0.54 0.54 0.0 0 1 233.61 208.22
  L 245.67 220.82
  Z"
/>
<path fill="#000000" d="
  M 102.50 224.01
  Q 112.50 219.96 123.45 218.53
  Q 124.68 218.37 123.80 219.25
  L 110.48 232.57
  A 0.30 0.30 0.0 0 1 110.06 232.57
  L 102.33 224.84
  A 0.51 0.51 0.0 0 1 102.50 224.01
  Z"
/>
<ellipse fill="#ffffff" cx="0.00" cy="0.00" transform="translate(191.48,225.52) rotate(102.9)" rx="5.71" ry="5.49"/>
<path fill="#b51f26" d="
  M 250.35 225.54
  L 241.11 234.99
  L 236.44 230.26
  L 245.67 220.82
  L 250.35 225.54
  Z"
/>
<path fill="#000000" d="
  M 250.35 225.54
  L 261.46 236.95
  A 2.14 2.12 23.4 0 1 262.05 238.42
  L 262.05 255.24
  Q 262.05 255.80 261.49 255.80
  L 254.95 255.80
  Q 254.29 255.80 254.29 255.15
  Q 254.27 251.97 254.25 250.01
  C 254.23 248.47 253.49 247.53 252.49 246.51
  Q 246.91 240.79 241.11 234.99
  L 250.35 225.54
  Z"
/>
<circle fill="#000000" cx="95.06" cy="233.12" r="4.17"/>
<path fill="#000000" d="
  M 238.74 266.01
  L 228.73 256.00
  A 0.65 0.65 0.0 0 1 228.84 254.99
  C 236.07 250.47 227.95 241.72 222.75 247.72
  Q 221.67 248.96 221.56 251.21
  Q 221.37 255.26 221.61 258.13
  Q 221.66 258.65 222.01 259.03
  Q 226.28 263.73 230.95 268.56
  Q 232.06 269.71 232.06 271.75
  Q 232.06 278.62 231.72 315.02
  Q 231.69 318.18 228.07 319.36
  Q 227.98 319.39 227.90 319.38
  Q 223.57 318.80 223.58 315.14
  L 223.66 272.64
  A 2.13 2.12 -67.6 0 0 223.04 271.14
  L 212.92 261.02
  Q 212.00 260.11 212.00 258.81
  L 212.00 250.46
  Q 212.00 250.04 212.30 249.74
  L 228.62 233.42
  A 0.30 0.29 44.3 0 1 229.03 233.42
  L 246.73 251.13
  A 3.07 3.04 22.6 0 1 247.64 253.30
  Q 247.72 263.25 247.59 272.65
  Q 247.44 284.13 246.84 286.84
  Q 245.26 293.98 239.52 299.63
  A 0.25 0.25 0.0 0 1 239.09 299.45
  L 239.09 266.87
  Q 239.09 266.37 238.74 266.01
  Z"
/>
<circle fill="#000000" cx="111.59" cy="260.44" r="4.16"/>
<circle fill="#000000" cx="258.19" cy="266.72" r="3.96"/>
<path fill="#000000" d="
  M 198.84 270.13
  L 204.62 264.36
  A 0.57 0.57 0.0 0 1 205.42 264.36
  L 216.38 275.33
  A 0.57 0.57 0.0 0 1 216.55 275.74
  L 216.55 280.37
  A 0.57 0.57 0.0 0 1 215.98 280.94
  L 209.10 280.94
  A 0.57 0.57 0.0 0 1 208.69 280.77
  L 198.84 270.93
  A 0.57 0.57 0.0 0 1 198.84 270.13
  Z"
/>
<circle fill="#000000" cx="178.45" cy="274.77" r="4.05"/>
<circle fill="#000000" cx="194.02" cy="281.32" r="4.09"/>
<circle fill="#000000" cx="211.25" cy="291.50" r="3.95"/>
</svg>
