<?xml version="1.0" encoding="UTF-8" standalone="no"?>
<!DOCTYPE svg PUBLIC "-//W3C//DTD SVG 1.1//EN" "http://www.w3.org/Graphics/SVG/1.1/DTD/svg11.dtd">
<svg xmlns="http://www.w3.org/2000/svg" version="1.1" viewBox="0.00 0.00 1024.00 1024.00">
<g stroke-width="2.00" fill="none" stroke-linecap="butt">
<path stroke="#5b1013" vector-effect="non-scaling-stroke" d="
  M 615.31 664.92
  Q 615.56 664.16 615.54 663.25
  Q 614.96 635.29 615.13 607.32
  C 615.14 604.90 614.45 603.30 612.96 601.65
  Q 607.46 595.53 598.85 586.78
  Q 589.41 577.20 585.90 573.51
  Q 584.94 572.50 560.71 547.05
  Q 552.80 538.74 545.62 531.97
  A 4.43 4.37 21.9 0 1 544.23 528.77
  L 544.23 499.11
  A 0.54 0.53 -90.0 0 0 543.70 498.57
  L 527.67 498.57
  A 0.57 0.57 0.0 0 0 527.10 499.13
  Q 526.86 508.50 526.98 532.88
  Q 526.99 535.63 528.25 537.46
  Q 530.91 541.33 536.52 547.38
  C 546.18 557.82 557.41 568.99 568.08 580.28
  Q 574.95 587.55 584.37 596.63
  C 588.41 600.53 592.88 605.53 597.14 609.88
  A 2.89 2.88 -67.0 0 1 597.96 611.92
  L 597.64 647.01"
/>
<path stroke="#5b1013" vector-effect="non-scaling-stroke" d="
  M 368.77 647.43
  L 368.36 665.18
  A 0.43 0.43 0.0 0 1 367.93 665.60
  Q 364.87 665.57 340.52 665.47
  Q 338.43 665.46 336.45 667.18
  Q 327.82 674.69 320.37 682.58
  A 0.67 0.67 0.0 0 0 320.86 683.71
  L 384.97 683.71
  A 0.68 0.68 0.0 0 0 385.65 683.07
  Q 385.81 680.53 385.78 678.08
  Q 385.44 652.87 385.67 634.76
  Q 385.70 632.30 387.11 630.86
  Q 413.74 603.73 445.83 573.85"
/>
<path stroke="#5b1013" vector-effect="non-scaling-stroke" d="
  M 572.84 479.94
  Q 572.77 494.37 573.10 508.50
  Q 573.12 509.32 573.32 510.13
  Q 573.50 510.90 574.04 511.58
  Q 584.57 524.80 595.39 535.29
  A 1.38 1.38 0.0 0 0 597.32 535.28
  Q 603.34 529.26 607.08 526.09
  Q 617.21 517.51 630.73 513.47
  Q 650.62 507.53 668.25 507.66
  Q 679.36 507.74 737.97 507.50
  A 1.56 1.56 0.0 0 0 739.21 506.86
  L 742.83 501.84
  A 0.89 0.89 0.0 0 0 742.72 500.66
  C 741.45 499.48 739.76 498.06 738.58 496.67
  Q 731.64 488.47 724.57 482.47
  A 1.00 0.99 -42.3 0 1 724.65 480.90
  L 731.86 475.89
  A 0.61 0.61 0.0 0 0 731.68 474.80
  Q 690.79 463.33 660.59 454.64
  Q 656.36 453.42 654.32 451.43
  C 652.01 449.16 649.38 445.43 646.82 443.12
  Q 642.72 439.42 638.97 435.23
  Q 637.23 433.29 634.52 433.17
  C 629.92 432.98 625.64 432.71 621.16 432.80
  Q 600.17 433.23 578.73 432.44"
/>
<path stroke="#5b1013" vector-effect="non-scaling-stroke" d="
  M 369.57 639.29
  L 369.57 636.54"
/>
<path stroke="#5b1013" vector-effect="non-scaling-stroke" d="
  M 369.46 628.82
  Q 368.08 625.16 369.58 623.85
  Q 379.46 615.19 390.66 603.42
  Q 395.05 598.80 401.87 593.42"
/>
<path stroke="#5b1013" vector-effect="non-scaling-stroke" d="
  M 556.49 632.55
  L 532.97 655.97"
/>
<path stroke="#5b1013" vector-effect="non-scaling-stroke" d="
  M 568.48 644.56
  Q 557.67 657.36 545.38 668.35"
/>
<path stroke="#5b1013" vector-effect="non-scaling-stroke" d="
  M 513.76 556.36
  L 503.53 546.31
  A 1.77 1.77 0.0 0 0 501.03 546.33
  L 441.90 606.50
  A 10.07 8.82 -45.5 0 0 441.13 619.86
  L 441.30 620.03
  A 10.07 8.82 -45.5 0 0 454.65 619.03
  L 513.78 558.86
  A 1.77 1.77 0.0 0 0 513.76 556.36"
/>
<path stroke="#5b1013" vector-effect="non-scaling-stroke" d="
  M 608.04 450.65
  Q 607.81 451.16 608.46 451.95
  Q 612.09 456.32 622.69 468.61
  Q 623.76 469.85 625.81 469.89
  Q 639.89 470.15 649.36 470.24
  Q 649.43 470.25 649.57 470.14
  Q 649.66 470.08 649.72 469.96
  Q 649.77 469.84 649.76 469.73
  Q 649.75 469.56 649.70 469.51
  Q 643.51 462.34 634.21 451.77
  Q 632.86 450.23 631.22 450.21
  Q 614.99 450.07 609.31 450.12
  Q 608.28 450.13 608.04 450.65"
/>
</g>
<path fill="#000000" d="
  M 615.31 664.92
  Q 615.56 664.16 615.54 663.25
  Q 614.96 635.29 615.13 607.32
  C 615.14 604.90 614.45 603.30 612.96 601.65
  Q 607.46 595.53 598.85 586.78
  Q 589.41 577.20 585.90 573.51
  Q 584.94 572.50 560.71 547.05
  Q 552.80 538.74 545.62 531.97
  A 4.43 4.37 21.9 0 1 544.23 528.77
  L 544.23 499.11
  A 0.54 0.53 -90.0 0 0 543.70 498.57
  L 527.67 498.57
  A 0.57 0.57 0.0 0 0 527.10 499.13
  Q 526.86 508.50 526.98 532.88
  Q 526.99 535.63 528.25 537.46
  Q 530.91 541.33 536.52 547.38
  C 546.18 557.82 557.41 568.99 568.08 580.28
  Q 574.95 587.55 584.37 596.63
  C 588.41 600.53 592.88 605.53 597.14 609.88
  A 2.89 2.88 -67.0 0 1 597.96 611.92
  L 597.64 647.01
  Q 594.45 644.48 591.55 641.45
  Q 565.19 613.97 534.23 582.52
  Q 530.41 578.65 526.82 574.53
  A 1.02 1.02 0.0 0 0 525.34 574.48
  Q 498.26 601.32 457.64 641.14
  Q 455.53 643.22 450.37 648.36
  Q 433.09 665.58 426.88 671.48
  Q 420.25 677.78 412.69 685.59
  Q 403.41 695.18 395.14 702.64
  C 393.14 704.45 391.30 705.09 388.45 705.17
  C 378.24 705.46 364.92 705.13 357.19 705.14
  Q 288.44 705.27 219.68 705.31
  Q 213.79 705.31 211.49 704.49
  Q 206.92 702.85 205.09 698.39
  Q 202.77 692.72 206.32 687.89
  C 210.03 682.86 214.86 683.40 221.83 683.40
  Q 227.04 683.40 286.00 683.43
  Q 287.74 683.43 290.49 681.00
  Q 293.85 678.04 297.83 674.08
  Q 313.48 658.49 323.03 648.69
  A 4.08 4.05 -67.7 0 1 325.94 647.46
  L 368.77 647.43
  L 368.36 665.18
  A 0.43 0.43 0.0 0 1 367.93 665.60
  Q 364.87 665.57 340.52 665.47
  Q 338.43 665.46 336.45 667.18
  Q 327.82 674.69 320.37 682.58
  A 0.67 0.67 0.0 0 0 320.86 683.71
  L 384.97 683.71
  A 0.68 0.68 0.0 0 0 385.65 683.07
  Q 385.81 680.53 385.78 678.08
  Q 385.44 652.87 385.67 634.76
  Q 385.70 632.30 387.11 630.86
  Q 413.74 603.73 445.83 573.85
  Q 457.61 565.43 468.70 555.19
  Q 501.05 525.32 510.70 482.23
  Q 511.12 480.36 512.48 479.98
  Q 512.67 479.92 515.01 479.90
  Q 543.87 479.61 572.84 479.94
  Q 572.77 494.37 573.10 508.50
  Q 573.12 509.32 573.32 510.13
  Q 573.50 510.90 574.04 511.58
  Q 584.57 524.80 595.39 535.29
  A 1.38 1.38 0.0 0 0 597.32 535.28
  Q 603.34 529.26 607.08 526.09
  Q 617.21 517.51 630.73 513.47
  Q 650.62 507.53 668.25 507.66
  Q 679.36 507.74 737.97 507.50
  A 1.56 1.56 0.0 0 0 739.21 506.86
  L 742.83 501.84
  A 0.89 0.89 0.0 0 0 742.72 500.66
  C 741.45 499.48 739.76 498.06 738.58 496.67
  Q 731.64 488.47 724.57 482.47
  A 1.00 0.99 -42.3 0 1 724.65 480.90
  L 731.86 475.89
  A 0.61 0.61 0.0 0 0 731.68 474.80
  Q 690.79 463.33 660.59 454.64
  Q 656.36 453.42 654.32 451.43
  C 652.01 449.16 649.38 445.43 646.82 443.12
  Q 642.72 439.42 638.97 435.23
  Q 637.23 433.29 634.52 433.17
  C 629.92 432.98 625.64 432.71 621.16 432.80
  Q 600.17 433.23 578.73 432.44
  Q 567.19 418.94 553.84 405.90
  Q 544.50 396.78 532.33 390.94
  Q 523.70 386.79 515.81 384.25
  C 509.49 382.22 502.26 379.43 496.11 377.61
  Q 471.54 370.33 459.73 366.24
  Q 427.56 355.08 398.33 338.05
  Q 380.38 327.59 365.67 313.78
  C 357.45 306.07 348.42 295.87 341.05 286.14
  Q 330.05 271.61 321.39 257.62
  Q 317.69 251.65 314.49 244.31
  Q 308.93 231.57 308.86 217.28
  Q 308.75 190.98 308.83 159.28
  C 308.85 153.45 309.69 148.07 316.04 146.15
  Q 322.09 144.31 327.02 147.97
  C 330.61 150.63 331.09 154.36 331.08 159.00
  Q 331.06 193.60 331.06 208.50
  Q 331.05 220.29 332.32 225.94
  Q 334.87 237.36 341.38 246.37
  Q 342.42 247.81 344.52 247.82
  Q 376.05 248.10 391.77 247.82
  Q 393.30 247.80 395.01 247.44
  A 0.92 0.91 84.2 0 0 395.74 246.54
  Q 395.77 202.40 395.77 158.53
  Q 395.77 151.84 396.80 149.63
  C 399.24 144.33 405.70 142.16 411.01 144.74
  Q 414.65 146.52 415.92 149.10
  Q 417.67 152.64 417.65 157.17
  Q 417.39 254.92 418.05 281.40
  Q 418.64 305.18 435.70 322.60
  Q 455.65 342.97 482.60 339.27
  Q 493.61 337.76 501.28 332.76
  C 515.65 323.40 521.56 308.63 521.64 291.73
  Q 521.82 250.93 521.79 246.15
  Q 521.77 242.44 522.61 240.63
  C 526.67 231.89 540.29 232.93 543.06 241.94
  Q 544.04 245.11 544.07 250.00
  Q 544.22 271.18 544.04 296.00
  Q 543.93 310.33 538.63 323.87
  C 533.66 336.57 523.13 348.31 511.02 355.17
  Q 508.62 356.53 511.27 357.30
  Q 514.06 358.10 525.70 361.60
  Q 535.22 364.46 545.05 366.13
  C 560.89 368.81 579.82 364.28 594.43 355.35
  Q 603.94 349.54 609.13 342.08
  Q 617.30 330.33 617.35 315.56
  Q 617.41 298.08 617.41 286.59
  Q 617.41 278.40 624.19 275.69
  Q 629.31 273.65 634.18 277.00
  Q 638.71 280.12 639.04 285.99
  Q 639.63 296.21 639.42 309.99
  Q 639.16 326.37 638.65 329.97
  Q 636.62 344.26 627.84 355.88
  Q 625.54 358.93 621.27 363.87
  Q 618.79 366.73 622.40 365.59
  C 633.96 361.91 645.16 357.77 654.93 351.42
  C 663.37 345.94 671.13 336.92 673.62 327.38
  C 674.89 322.53 675.67 317.85 675.76 312.92
  Q 675.94 303.87 675.95 281.27
  C 675.95 278.51 676.34 274.36 678.38 272.04
  Q 682.74 267.09 689.06 268.72
  Q 694.99 270.24 697.13 276.25
  Q 697.75 277.99 697.82 286.36
  Q 697.97 305.48 697.82 316.76
  C 697.69 326.17 695.93 336.30 691.68 344.57
  Q 690.04 347.78 686.33 352.60
  Q 682.57 357.48 680.38 360.23
  Q 678.65 362.41 681.23 361.35
  Q 684.51 360.01 688.29 358.08
  C 697.35 353.45 703.31 345.12 705.72 335.21
  C 707.78 326.78 707.80 319.76 707.90 309.65
  Q 707.95 304.85 709.34 302.65
  Q 711.64 299.00 716.67 298.40
  C 722.14 297.75 728.72 300.74 729.04 306.86
  Q 729.33 312.51 729.18 325.15
  Q 729.05 336.26 727.19 343.28
  Q 719.95 370.65 693.47 383.71
  Q 686.27 387.25 676.02 390.92
  Q 651.72 399.62 639.08 403.54
  Q 627.31 407.19 613.33 412.35
  Q 612.97 412.48 612.84 412.62
  A 0.60 0.60 0.0 0 0 612.99 413.56
  Q 615.75 415.04 618.94 415.87
  Q 635.66 420.22 650.39 424.36
  C 653.31 425.18 654.79 426.16 656.67 428.57
  Q 662.48 436.00 664.21 438.26
  A 5.17 5.11 81.9 0 0 666.34 439.88
  Q 670.69 441.67 675.76 443.04
  Q 697.48 448.93 750.38 464.59
  Q 753.83 465.61 756.97 466.35
  A 2.60 2.59 -84.0 0 1 758.97 468.83
  Q 759.19 480.15 759.59 491.28
  C 759.71 494.46 759.47 496.15 757.56 498.82
  Q 751.68 507.04 747.49 513.81
  C 745.12 517.63 742.17 521.35 739.88 524.12
  C 738.50 525.78 737.22 526.89 734.94 527.04
  Q 731.58 527.27 731.03 527.28
  C 717.91 527.38 702.74 526.79 688.56 528.38
  Q 669.20 530.56 654.46 542.18
  Q 647.03 548.04 643.39 556.14
  C 641.19 561.05 642.19 566.00 644.08 571.80
  Q 646.02 577.75 649.65 590.06
  Q 653.49 603.12 654.90 623.26
  Q 656.18 641.41 651.98 660.77
  Q 650.72 666.58 647.62 673.69
  Q 647.03 675.04 646.51 673.66
  Q 643.02 664.41 642.06 662.15
  Q 639.92 657.10 637.52 653.16
  Q 635.83 650.38 635.63 653.63
  Q 634.68 668.44 633.34 676.12
  Q 630.89 690.17 624.66 703.97
  Q 620.47 713.24 614.84 720.08
  Q 613.99 721.12 614.21 719.79
  Q 615.40 712.60 615.73 705.50
  Q 616.42 690.80 616.10 667.00
  Q 616.09 666.51 615.31 664.92
  Z
  M 399.70 308.66
  Q 399.85 307.89 399.74 307.60
  Q 396.97 300.22 396.23 294.29
  Q 394.72 282.25 395.21 271.48
  A 0.78 0.78 0.0 0 0 394.43 270.66
  L 360.03 270.66
  A 0.75 0.75 0.0 0 0 359.40 271.83
  C 364.56 279.60 371.23 286.86 378.12 293.20
  Q 385.22 299.74 387.88 301.85
  Q 393.05 305.98 398.90 309.05
  A 0.56 0.55 -70.7 0 0 399.70 308.66
  Z
  M 513.76 556.36
  L 503.53 546.31
  A 1.77 1.77 0.0 0 0 501.03 546.33
  L 441.90 606.50
  A 10.07 8.82 -45.5 0 0 441.13 619.86
  L 441.30 620.03
  A 10.07 8.82 -45.5 0 0 454.65 619.03
  L 513.78 558.86
  A 1.77 1.77 0.0 0 0 513.76 556.36
  Z
  M 415.5346 658.5433
  A 14.58 14.02 102.7 0 0 432.4170 647.4022
  A 14.58 14.02 102.7 0 0 421.9454 630.0967
  A 14.58 14.02 102.7 0 0 405.0630 641.2378
  A 14.58 14.02 102.7 0 0 415.5346 658.5433
  Z"
/>
<path fill="#000000" d="
  M 443.69 257.94
  Q 439.71 262.65 435.23 267.03
  A 0.29 0.29 0.0 0 1 434.74 266.82
  Q 434.43 211.75 434.61 189.77
  Q 434.63 187.26 435.69 184.68
  C 437.52 180.19 442.47 177.49 447.10 178.52
  Q 456.74 180.66 456.72 191.06
  Q 456.66 217.29 456.73 239.03
  Q 456.74 244.10 453.72 247.20
  Q 446.65 254.43 443.69 257.94
  Z"
/>
<path fill="#000000" d="
  M 278.87 265.16
  C 272.79 257.79 265.55 250.74 254.47 239.27
  Q 252.46 237.19 248.05 232.01
  Q 246.80 230.54 246.56 228.01
  Q 246.09 223.13 246.66 211.95
  Q 246.79 209.37 248.12 208.11
  Q 256.87 199.84 267.15 187.56
  A 0.58 0.58 0.0 0 1 268.16 187.80
  Q 268.69 190.06 268.61 193.26
  Q 268.30 205.49 268.40 219.07
  Q 268.42 221.96 271.56 225.48
  Q 274.87 229.19 295.81 252.11
  Q 310.32 267.99 324.87 288.10
  Q 325.81 289.40 324.21 289.39
  Q 293.70 289.18 223.66 289.35
  Q 218.72 289.36 216.43 288.67
  C 211.67 287.23 208.35 282.76 208.57 277.79
  C 208.83 271.98 213.02 267.22 218.82 266.27
  Q 219.41 266.18 228.19 266.15
  Q 250.64 266.07 278.34 266.29
  A 0.69 0.69 0.0 0 0 278.87 265.16
  Z"
/>
<path fill="#000000" d="
  M 497.61 453.00
  C 477.33 440.53 464.18 417.95 460.14 394.72
  Q 459.94 393.55 460.10 392.87
  A 1.27 1.26 7.5 0 1 461.40 391.88
  Q 474.74 392.54 489.63 394.98
  Q 506.44 397.74 520.30 403.97
  Q 531.47 409.00 540.72 418.83
  Q 544.35 422.69 565.32 445.89
  C 568.74 449.66 572.94 453.69 576.58 457.69
  Q 578.07 459.33 578.55 460.76
  Q 578.72 461.23 578.21 461.23
  Q 563.31 460.97 537.79 461.32
  Q 534.70 461.36 525.32 460.84
  Q 516.22 460.33 507.99 457.85
  Q 503.10 456.37 497.61 453.00
  Z"
/>
<path fill="#b51f26" d="
  M 572.84 479.94
  L 594.26 479.94
  A 1.63 1.62 4.6 0 0 595.87 478.58
  Q 596.05 477.51 596.09 476.06
  Q 596.23 471.77 596.18 453.25
  Q 596.17 451.21 594.71 449.78
  Q 586.57 441.84 578.73 432.44
  Q 600.17 433.23 621.16 432.80
  C 625.64 432.71 629.92 432.98 634.52 433.17
  Q 637.23 433.29 638.97 435.23
  Q 642.72 439.42 646.82 443.12
  C 649.38 445.43 652.01 449.16 654.32 451.43
  Q 656.36 453.42 660.59 454.64
  Q 690.79 463.33 731.68 474.80
  A 0.61 0.61 0.0 0 1 731.86 475.89
  L 724.65 480.90
  A 1.00 0.99 -42.3 0 0 724.57 482.47
  Q 731.64 488.47 738.58 496.67
  C 739.76 498.06 741.45 499.48 742.72 500.66
  A 0.89 0.89 0.0 0 1 742.83 501.84
  L 739.21 506.86
  A 1.56 1.56 0.0 0 1 737.97 507.50
  Q 679.36 507.74 668.25 507.66
  Q 650.62 507.53 630.73 513.47
  Q 617.21 517.51 607.08 526.09
  Q 603.34 529.26 597.32 535.28
  A 1.38 1.38 0.0 0 1 595.39 535.29
  Q 584.57 524.80 574.04 511.58
  Q 573.50 510.90 573.32 510.13
  Q 573.12 509.32 573.10 508.50
  Q 572.77 494.37 572.84 479.94
  Z
  M 608.04 450.65
  Q 607.81 451.16 608.46 451.95
  Q 612.09 456.32 622.69 468.61
  Q 623.76 469.85 625.81 469.89
  Q 639.89 470.15 649.36 470.24
  Q 649.43 470.25 649.57 470.14
  Q 649.66 470.08 649.72 469.96
  Q 649.77 469.84 649.76 469.73
  Q 649.75 469.56 649.70 469.51
  Q 643.51 462.34 634.21 451.77
  Q 632.86 450.23 631.22 450.21
  Q 614.99 450.07 609.31 450.12
  Q 608.28 450.13 608.04 450.65
  Z"
/>
<path fill="#000000" d="
  M 649.72 469.96
  Q 649.66 470.08 649.57 470.14
  Q 649.43 470.25 649.36 470.24
  Q 639.89 470.15 625.81 469.89
  Q 623.76 469.85 622.69 468.61
  Q 612.09 456.32 608.46 451.95
  Q 607.81 451.16 608.04 450.65
  Q 608.28 450.13 609.31 450.12
  Q 614.99 450.07 631.22 450.21
  Q 632.86 450.23 634.21 451.77
  Q 643.51 462.34 649.70 469.51
  Q 649.75 469.56 649.76 469.73
  Q 649.77 469.84 649.72 469.96
  Z"
/>
<path fill="#b51f26" d="
  M 615.31 664.92
  L 597.64 647.01
  L 597.96 611.92
  A 2.89 2.88 -67.0 0 0 597.14 609.88
  C 592.88 605.53 588.41 600.53 584.37 596.63
  Q 574.95 587.55 568.08 580.28
  C 557.41 568.99 546.18 557.82 536.52 547.38
  Q 530.91 541.33 528.25 537.46
  Q 526.99 535.63 526.98 532.88
  Q 526.86 508.50 527.10 499.13
  A 0.57 0.57 0.0 0 1 527.67 498.57
  L 543.70 498.57
  A 0.54 0.53 -90.0 0 1 544.23 499.11
  L 544.23 528.77
  A 4.43 4.37 21.9 0 0 545.62 531.97
  Q 552.80 538.74 560.71 547.05
  Q 584.94 572.50 585.90 573.51
  Q 589.41 577.20 598.85 586.78
  Q 607.46 595.53 612.96 601.65
  C 614.45 603.30 615.14 604.90 615.13 607.32
  Q 614.96 635.29 615.54 663.25
  Q 615.56 664.16 615.31 664.92
  Z"
/>
<path fill="#b51f26" d="
  M 513.76 556.36
  A 1.77 1.77 0.0 0 1 513.78 558.86
  L 454.65 619.03
  A 10.07 8.82 -45.5 0 1 441.30 620.03
  L 441.13 619.86
  A 10.07 8.82 -45.5 0 1 441.90 606.50
  L 501.03 546.33
  A 1.77 1.77 0.0 0 1 503.53 546.31
  L 513.76 556.36
  Z"
/>
<path fill="#b51f26" d="
  M 445.83 573.85
  Q 413.74 603.73 387.11 630.86
  Q 385.70 632.30 385.67 634.76
  Q 385.44 652.87 385.78 678.08
  Q 385.81 680.53 385.65 683.07
  A 0.68 0.68 0.0 0 1 384.97 683.71
  L 320.86 683.71
  A 0.67 0.67 0.0 0 1 320.37 682.58
  Q 327.82 674.69 336.45 667.18
  Q 338.43 665.46 340.52 665.47
  Q 364.87 665.57 367.93 665.60
  A 0.43 0.43 0.0 0 0 368.36 665.18
  L 368.77 647.43
  L 369.57 639.29
  L 369.57 636.54
  L 369.46 628.82
  Q 368.08 625.16 369.58 623.85
  Q 379.46 615.19 390.66 603.42
  Q 395.05 598.80 401.87 593.42
  Q 424.10 585.72 445.83 573.85
  Z"
/>
<path fill="#000000" d="
  M 401.87 593.42
  Q 395.05 598.80 390.66 603.42
  Q 379.46 615.19 369.58 623.85
  Q 368.08 625.16 369.46 628.82
  L 320.52 629.06
  A 6.55 6.48 27.9 0 0 316.97 630.13
  Q 313.85 632.18 310.63 635.38
  C 303.51 642.48 292.84 654.04 283.19 662.94
  C 281.53 664.46 279.78 664.97 277.31 664.97
  Q 268.06 664.99 235.71 664.94
  Q 234.61 664.94 235.38 664.15
  Q 254.25 644.71 276.33 623.32
  C 277.70 621.99 280.19 618.60 282.62 618.35
  Q 303.99 616.18 317.27 613.80
  Q 332.35 611.09 336.72 610.41
  Q 360.17 606.78 384.61 598.82
  Q 393.07 596.06 401.87 593.42
  Z"
/>
<path fill="#000000" d="
  M 556.49 632.55
  L 532.97 655.97
  L 515.34 637.43
  A 1.22 1.22 0.0 0 0 513.62 637.38
  C 502.98 647.45 492.84 658.50 482.60 668.24
  Q 470.51 679.74 455.28 695.27
  C 453.57 697.01 452.28 699.09 452.33 701.82
  Q 452.41 706.86 452.23 714.75
  C 452.19 716.14 452.22 718.00 451.22 719.36
  Q 449.06 722.31 447.92 723.42
  Q 435.10 735.95 419.42 752.17
  Q 417.16 754.51 412.76 758.44
  A 1.07 1.05 -45.0 0 1 411.37 758.45
  Q 405.67 753.53 399.08 746.03
  Q 398.60 745.49 397.70 745.14
  Q 397.10 744.91 396.11 744.91
  Q 395.85 744.91 391.56 744.97
  Q 334.61 745.73 258.27 745.20
  C 252.91 745.16 248.32 744.22 245.47 739.19
  Q 242.60 734.12 245.33 729.13
  Q 248.08 724.10 253.75 723.69
  Q 255.95 723.53 263.75 723.52
  Q 339.42 723.38 397.25 723.59
  A 5.11 5.10 -64.3 0 0 400.44 722.47
  Q 402.48 720.82 405.14 718.39
  Q 406.69 716.97 424.55 699.30
  Q 439.57 684.42 457.61 666.61
  Q 491.00 633.63 524.15 600.48
  Q 525.08 599.54 526.00 600.50
  L 556.49 632.55
  Z"
/>
<path fill="#000000" d="
  M 210.35 662.23
  L 192.58 641.82
  Q 191.70 640.80 192.93 640.26
  C 209.19 633.12 227.24 629.39 246.49 626.28
  Q 249.24 625.83 247.27 627.80
  L 212.76 662.32
  Q 211.51 663.57 210.35 662.23
  Z"
/>
<path fill="#b51f26" d="
  M 556.49 632.55
  L 568.48 644.56
  Q 557.67 657.36 545.38 668.35
  L 532.97 655.97
  L 556.49 632.55
  Z"
/>
<path fill="#000000" d="
  M 369.57 636.54
  L 369.57 639.29
  L 369.57 636.54
  Z"
/>
<path fill="#000000" d="
  M 545.38 668.35
  Q 557.67 657.36 568.48 644.56
  Q 587.39 662.73 597.22 674.05
  Q 598.15 675.11 598.18 678.02
  Q 598.42 699.13 598.13 720.04
  Q 598.11 721.28 596.87 721.28
  L 579.77 721.28
  A 1.38 1.37 -0.4 0 1 578.39 719.93
  Q 578.34 716.74 578.31 704.76
  Q 578.30 702.65 575.68 699.82
  Q 564.54 687.76 547.99 671.52
  Q 546.45 670.01 545.38 668.35
  Z"
/>
<ellipse fill="#000000" cx="0.00" cy="0.00" transform="translate(173.61,663.65) rotate(97.8)" rx="10.83" ry="10.46"/>
<path fill="#000000" d="
  M 500.53 763.74
  Q 499.49 761.48 497.80 759.80
  Q 482.56 744.63 472.81 732.90
  Q 470.79 730.47 470.80 727.28
  Q 470.85 713.82 470.95 709.26
  A 3.80 3.73 66.1 0 1 471.81 706.97
  Q 477.95 699.61 484.13 693.38
  Q 496.26 681.17 512.93 664.29
  A 1.08 1.07 44.8 0 1 514.46 664.29
  Q 535.53 685.25 559.33 709.99
  Q 561.23 711.97 561.40 714.61
  Q 561.77 720.37 561.71 727.25
  Q 561.49 756.70 561.07 787.76
  Q 560.82 806.22 550.60 821.14
  Q 546.93 826.49 540.39 833.46
  Q 539.63 834.26 539.64 833.16
  Q 540.02 778.39 539.95 750.75
  Q 539.94 749.08 537.44 746.30
  Q 526.67 734.38 512.90 721.04
  Q 512.09 720.26 513.07 719.70
  Q 514.12 719.10 516.48 717.25
  Q 522.80 712.28 520.54 704.72
  C 519.06 699.77 514.84 695.66 509.32 695.61
  C 503.34 695.55 497.88 699.00 495.96 704.73
  Q 495.09 707.33 495.07 712.40
  Q 495.04 721.46 495.11 726.27
  Q 495.14 728.15 496.43 729.60
  Q 505.48 739.82 518.55 753.19
  Q 520.80 755.49 521.38 758.40
  Q 521.56 759.29 521.59 764.12
  Q 521.91 817.13 521.25 869.20
  Q 521.19 873.67 520.45 875.68
  C 518.93 879.78 514.69 883.11 510.23 882.81
  Q 506.38 882.55 504.10 880.51
  C 500.63 877.42 500.22 873.10 500.27 868.26
  Q 500.71 820.87 500.56 769.44
  C 500.56 767.60 501.17 765.12 500.53 763.74
  Z"
/>
<circle fill="#000000" cx="215.61" cy="733.10" r="10.64"/>
<circle fill="#000000" cx="588.35" cy="749.09" r="10.10"/>
<path fill="#000000" d="
  M 460.55 783.19
  C 452.51 774.87 445.54 768.06 437.24 759.09
  A 1.08 1.07 46.7 0 1 437.28 757.58
  L 452.75 742.81
  A 0.93 0.93 0.0 0 1 454.04 742.83
  Q 463.67 752.41 481.36 770.39
  Q 482.37 771.41 482.53 773.50
  Q 482.92 778.76 482.60 783.74
  A 1.28 1.28 0.0 0 1 481.44 784.93
  Q 473.16 785.71 463.96 785.37
  Q 462.60 785.32 460.55 783.19
  Z"
/>
<ellipse fill="#000000" cx="0.00" cy="0.00" transform="translate(385.62,769.56) rotate(-31.4)" rx="10.49" ry="10.20"/>
<circle fill="#000000" cx="425.20" cy="786.21" r="10.45"/>
<circle fill="#000000" cx="469.02" cy="812.08" r="10.11"/>
</svg>
